<svg xmlns="http://www.w3.org/2000/svg" xmlns:xlink="http://www.w3.org/1999/xlink" id="Layer_2" viewBox="0 0 526.1 417"><defs><style>.cls-1,.cls-2,.cls-3,.cls-4,.cls-5,.cls-6,.cls-7,.cls-8,.cls-9,.cls-10,.cls-11,.cls-12,.cls-13,.cls-14,.cls-15,.cls-16,.cls-17{isolation:isolate;}.cls-1,.cls-5,.cls-11{opacity:.26;}.cls-1,.cls-10{fill:#ebedf0;}.cls-18{fill:#58f5f5;}.cls-2{fill:#58595b;opacity:.7;}.cls-19,.cls-5,.cls-14,.cls-16{fill:#fff;}.cls-20{fill:#a7a9ac;}.cls-21,.cls-3{opacity:.5;}.cls-22{fill:#939598;}.cls-3,.cls-6,.cls-11,.cls-15,.cls-23{fill:#219b9b;}.cls-4{fill:#ffc700;}.cls-4,.cls-24{opacity:.35;}.cls-25{clip-path:url(#clippath-2);}.cls-26,.cls-12,.cls-13{fill:#0b3944;}.cls-27{fill:url(#linear-gradient-2);}.cls-27,.cls-28{fill-rule:evenodd;}.cls-6{opacity:.3;}.cls-28{fill:url(#linear-gradient);}.cls-29{fill:#0a0903;}.cls-30{clip-path:url(#clippath-1);}.cls-31{clip-path:url(#clippath-4);}.cls-32,.cls-9{fill:#ffdc5c;}.cls-7{opacity:.49;}.cls-7,.cls-33,.cls-8,.cls-17{fill:#ad4545;}.cls-34{fill:#ffffe0;}.cls-35{clip-path:url(#clippath);}.cls-36{fill:#ffe999;}.cls-37{fill:none;}.cls-8{opacity:.23;}.cls-9,.cls-10,.cls-14{opacity:.18;}.cls-38{clip-path:url(#clippath-3);}.cls-39{fill:#fe8080;}.cls-12{opacity:.53;}.cls-40{fill:#d1d3d4;}.cls-13{opacity:.86;}.cls-41{fill:#e6e7e8;}.cls-42{fill:url(#linear-gradient-3);}.cls-43{clip-path:url(#clippath-5);}.cls-15{opacity:.36;}.cls-16{opacity:.2;}.cls-17{opacity:.24;}</style><clipPath id="clippath"><polygon class="cls-37" points="350.3 238.4 320.9 238.4 306.2 263.8 320.9 289.3 350.3 289.3 365 263.8 350.3 238.4"></polygon></clipPath><clipPath id="clippath-1"><polygon class="cls-37" points="262.2 289.2 232.8 289.2 218.1 314.7 232.8 340.1 262.2 340.1 276.8 314.7 262.2 289.2"></polygon></clipPath><clipPath id="clippath-2"><polygon class="cls-37" points="174.2 238 144.8 238 130.1 263.5 144.8 288.9 174.2 288.9 188.9 263.5 174.2 238"></polygon></clipPath><clipPath id="clippath-3"><polygon class="cls-37" points="174.2 136.3 144.8 136.3 130.1 161.7 144.8 187.2 174.2 187.2 188.9 161.7 174.2 136.3"></polygon></clipPath><clipPath id="clippath-4"><polygon class="cls-37" points="350.4 136.6 321 136.6 306.3 162.1 321 187.5 350.4 187.5 365.1 162.1 350.4 136.6"></polygon></clipPath><clipPath id="clippath-5"><polygon class="cls-37" points="262.4 85.5 233 85.5 218.4 111 233 136.4 262.4 136.4 277.1 111 262.4 85.5"></polygon></clipPath><linearGradient id="linear-gradient" x1="209.03" y1="212.8" x2="292.43" y2="212.8" gradientTransform="translate(0 425.2) scale(1 -1)" gradientUnits="userSpaceOnUse"><stop offset=".22" stop-color="#fe8080"></stop><stop offset=".27" stop-color="#f18989"></stop><stop offset=".53" stop-color="#b0b7b7"></stop><stop offset=".74" stop-color="#80d9d9"></stop><stop offset=".91" stop-color="#63eded"></stop><stop offset="1" stop-color="#58f5f5"></stop></linearGradient><linearGradient id="linear-gradient-2" x1="395.16" y1="181.67" x2="442.18" y2="263.12" gradientTransform="translate(0 425.2) scale(1 -1)" gradientUnits="userSpaceOnUse"><stop offset="0" stop-color="#ad4545"></stop><stop offset="1" stop-color="#ad4545" stop-opacity="0"></stop></linearGradient><linearGradient id="linear-gradient-3" x1="159.3" y1="41.75" x2="159.3" y2="73.45" gradientTransform="translate(0 425.2) scale(1 -1)" gradientUnits="userSpaceOnUse"><stop offset="0" stop-color="#ad4545"></stop><stop offset="1" stop-color="#fe8080"></stop></linearGradient></defs><g id="Layer_1-2"><g id="Layer_12"><polygon class="cls-16" points="144.8 288.9 174.2 288.9 188.9 263.5 174.2 238 144.8 238 130.1 263.5 144.8 288.9"></polygon><polygon class="cls-16" points="350.4 136.6 321 136.6 306.3 162.1 321 187.5 350.4 187.5 365.1 162.1 350.4 136.6"></polygon><polygon class="cls-16" points="320.9 289.3 350.3 289.3 365 263.8 350.3 238.4 320.9 238.4 306.2 263.8 320.9 289.3"></polygon><polygon class="cls-16" points="262.4 85.5 233 85.5 218.4 111 233 136.4 262.4 136.4 277.1 111 262.4 85.5"></polygon><polygon class="cls-16" points="174.2 136.3 144.8 136.3 130.1 161.7 144.8 187.2 174.2 187.2 188.9 161.7 174.2 136.3"></polygon><polygon class="cls-16" points="232.8 340.1 262.2 340.1 276.8 314.7 262.2 289.2 232.8 289.2 218.1 314.7 232.8 340.1"></polygon></g><g id="avatars"><g class="cls-35"><g><g><path class="cls-4" d="M359.2,294.4h-23.6c3.1-2.6,5.6-5.7,7.5-9.2,.4,.5,.8,.9,1.1,1.4,0,0,2.8-2.9,2.8-3.9,.2,.1,2.9,1.6,4.8,2.6,4.8,2.7,7.4,4.8,7.4,9.1Z"></path><path class="cls-5" d="M347,282.7h0c0,1-2.8,3.9-2.8,3.9-.3-.4-.7-.9-1.1-1.4-1.3-1.4-3.1-2.6-4.7-.8,2.1-2.4,4.2-4.5,3.5-6,2,.8,4.9,4,5.1,4.3Z"></path><path class="cls-29" d="M341.9,277.6c0,.3,0,.5,.1,.7,.6,1.5-1.4,3.6-3.5,6-1.1,1.2-2.1,2.5-2.8,3.8-.7-1.3-1.8-2.6-2.8-3.8-2.1-2.4-4.2-4.5-3.5-6h.1c.1-.2,.1-.5,.1-.7v-2.9c.6,.5,1.1,.8,1.4,.9,1.2,.7,1.7,1.6,4.7,1.6s3.5-.8,4.7-1.6c.3-.1,.9-.4,1.6-1v3h-.1Z"></path><path class="cls-1" d="M338.5,284.4c1.6-1.7,3.4-.6,4.7,.8-1.9,3.5-4.5,6.7-7.5,9.2-3.1-2.6-5.6-5.7-7.5-9.2,1.3-1.4,3.1-2.6,4.7-.8,1.1,1.2,2.1,2.5,2.8,3.8,.7-1.4,1.7-2.6,2.8-3.8Z"></path><path class="cls-4" d="M335.6,294.4h-23.5c0-4.3,2.6-6.5,7.3-9.1,1.9-1.1,4.6-2.5,4.8-2.6,0,1,2.8,3.9,2.8,3.9,.3-.4,.7-.9,1.1-1.4,1.9,3.5,4.4,6.7,7.5,9.2Z"></path><path class="cls-5" d="M332.8,284.4c-1.6-1.7-3.4-.6-4.7,.8-.4,.5-.8,.9-1.1,1.4,0,0-2.8-2.9-2.8-3.9h0c.2-.3,3.1-3.4,5-4.3-.6,1.5,1.5,3.6,3.6,6Z"></path><path class="cls-11" d="M324.4,262.5c-.6-1.5-.6-3.3-.6-4.8,0-7.3,4.4-10.3,11.8-10.3s11.8,3,11.8,10.3c0,1.5,0,3.3-.6,4.8-.1-.2-.2-.2-.2-.2-4.1-2.5-.5-6.8-3.9-10.2-1.1-1.1-3.4-1.6-7.1-1.6s-6,.5-7.1,1.6c-3.4,3.4,.1,7.7-3.9,10.2,0,0-.1,0-.2,.2Z"></path><path class="cls-29" d="M346.8,262.5c.2,.3,.6,.9,.6,2.1,0,3.5-2.5,3.7-2.5,3.7-.5,3.3-1.8,5.2-3,6.2-.6,.6-1.2,.9-1.6,1-1.2,.7-1.7,1.6-4.7,1.6s-3.5-.8-4.7-1.6c-.3-.1-.8-.4-1.4-.9-1.2-1-2.6-2.9-3.1-6.4,0,0-2.5-.2-2.5-3.7,0-1.2,.3-1.8,.6-2.1,.1-.2,.2-.2,.2-.2,4.1-2.5,.5-6.8,3.9-10.2,1.1-1.1,3.4-1.6,7.1-1.6s6,.5,7.1,1.6c3.4,3.4-.1,7.7,3.9,10.2-.1,.1,0,.1,.1,.3Z"></path></g><g><path class="cls-34" d="M335.6,277.7c-2.6,0-3.5-.6-4.3-1.2-.2-.1-.4-.3-.6-.4-.3-.1-.8-.3-1.6-.9-1.1-1-2.6-2.9-3.2-6.3-.8-.2-2.6-1.1-2.6-4.2,0-1.3,.4-2,.7-2.4l.3-.3c.2-.2,.5-.1,.7,.1s.1,.5-.1,.7h0l-.1,.1c-.2,.2-.5,.8-.5,1.8,0,3,2,3.2,2,3.3,.2,0,.4,.2,.5,.4,.6,3.6,2.1,5.3,3,6.1,.7,.6,1.1,.7,1.3,.8h.1c.3,.2,.5,.3,.7,.5,.8,.6,1.5,1,3.7,1s3-.5,3.7-1c.2-.2,.4-.3,.7-.5h.1c.1,0,.7-.2,1.4-.9,1-.9,2.3-2.7,2.8-6,0-.2,.2-.4,.5-.4,.1,0,2-.3,2-3.3,0-1.1-.3-1.6-.5-1.8l-.1-.1c-.2-.2-.3-.5-.1-.7s.4-.3,.7-.1c0,0,.2,.1,.3,.3,.3,.4,.7,1.1,.7,2.4,0,3.1-1.8,3.9-2.6,4.2-.6,3.4-2,5.2-3.1,6.2-.8,.7-1.4,1-1.7,1.1-.2,.1-.4,.3-.6,.4-.7,.4-1.6,1.1-4.2,1.1Z"></path><path class="cls-34" d="M346.6,262.8c-.1,0-.2,0-.3-.1-2.4-1.5-2.4-3.5-2.5-5.4,0-1.7-.1-3.4-1.6-4.8-.9-.9-3.2-1.4-6.7-1.4s-5.8,.5-6.7,1.4c-1.5,1.5-1.5,3.1-1.6,4.8-.1,2-.1,4-2.5,5.4-.2,.1-.5,.1-.7-.2-.1-.2-.1-.5,.2-.7,1.9-1.2,1.9-2.8,2-4.6,0-1.8,.1-3.8,1.8-5.5,1.2-1.2,3.5-1.7,7.4-1.7s6.2,.5,7.4,1.7c1.8,1.8,1.8,3.7,1.8,5.5,0,1.9,.1,3.4,2,4.6,.2,.1,.3,.5,.2,.7,.1,.2,0,.3-.2,.3Z"></path><path class="cls-34" d="M342,278.8c-.2,0-.4-.2-.5-.4-.1-.3-.1-.6-.1-.8v-3c0-.3,.2-.5,.5-.5s.5,.2,.5,.5v3c0,.2,0,.4,.1,.6,.1,.3-.1,.5-.4,.6h-.1Z"></path><path class="cls-34" d="M329.4,278.8h-.1c-.3-.1-.4-.3-.4-.6,0-.2,.1-.4,.1-.6v-2.9c0-.3,.2-.5,.5-.5s.5,.2,.5,.5v2.9c0,.3,0,.5-.1,.8-.1,.3-.3,.4-.5,.4Z"></path><path class="cls-34" d="M359.2,294.9c-.3,0-.5-.2-.5-.5,0-4-2.4-6.1-7.1-8.7-1.8-1-4.6-2.5-4.8-2.6-.2-.1-.4-.4-.2-.7,.1-.2,.4-.4,.7-.2,.2,.1,3,1.6,4.8,2.6,4.9,2.7,7.6,5.1,7.6,9.6,0,.3-.3,.5-.5,.5Z"></path><path class="cls-34" d="M312.1,294.9c-.3,0-.5-.2-.5-.5,0-4.5,2.7-6.8,7.6-9.6,1.8-1,4.6-2.5,4.8-2.6,.3-.1,.5,0,.7,.2,.1,.2,0,.5-.2,.7-.2,.1-2.9,1.6-4.8,2.6-4.7,2.6-7.1,4.7-7.1,8.7,0,.3-.2,.5-.5,.5Z"></path><path class="cls-34" d="M346.8,263h-.2c-.3-.1-.4-.4-.3-.6,.5-1.4,.5-3.1,.5-4.6,0-6.6-3.7-9.8-11.3-9.8s-11.3,3.2-11.3,9.8c0,1.5,0,3.2,.5,4.6,.1,.3,0,.5-.3,.6s-.5,0-.6-.3c-.6-1.6-.6-3.4-.6-5,0-7.2,4.1-10.8,12.3-10.8s12.3,3.6,12.3,10.8c0,1.6,0,3.4-.6,5,0,.2-.2,.3-.4,.3Z"></path><path class="cls-34" d="M335.6,288.6c-.2,0-.3-.1-.4-.3-.7-1.3-1.8-2.5-2.8-3.7l-.6-.7c-2-2.2-3.7-4.1-3-5.8,.1-.3,.4-.4,.7-.3,.3,.1,.4,.4,.3,.7-.5,1.1,1.1,2.9,2.8,4.8l.6,.7c.9,1,1.8,2,2.5,3.1,.7-1.1,1.6-2.2,2.5-3.1l.6-.7c1.7-1.9,3.3-3.7,2.8-4.8-.1-.3,0-.5,.3-.7,.3-.1,.5,0,.7,.3,.7,1.7-1,3.6-3,5.8l-.6,.7c-1,1.2-2.1,2.4-2.8,3.7-.2,.2-.4,.3-.6,.3Z"></path><path class="cls-34" d="M344.2,287.1h0c-.2,0-.3-.1-.4-.2-.3-.5-.7-.9-1-1.3-.6-.7-1.6-1.5-2.5-1.6h0c-.5,0-1,.2-1.4,.7-.2,.2-.5,.2-.7,0s-.2-.5,0-.7c.6-.7,1.4-1,2.2-1,1.1,0,2.2,.6,3.3,1.9,.3,.3,.5,.6,.7,.9,1-1.1,2-2.4,2.2-2.9-.7-.7-3.1-3.3-4.7-4-.3-.1-.4-.4-.2-.7,.1-.2,.4-.4,.7-.2,2.1,1,5.1,4.3,5.2,4.5,.1,.1,.1,.2,.1,.3,0,1.1-2.3,3.5-2.9,4.2-.3,0-.5,.1-.6,.1Z"></path><path class="cls-34" d="M327,287.1c-.1,0-.3-.1-.4-.2-.7-.7-2.9-3.1-2.9-4.2,0-.1,.1-.3,.1-.4,0,0,3.1-3.5,5.2-4.4,.3-.1,.5,0,.7,.2,.1,.3,0,.5-.2,.7-1.7,.8-4.1,3.4-4.7,4,.2,.6,1.2,1.8,2.2,2.9,.2-.3,.5-.6,.7-.9,1.1-1.2,2.2-1.9,3.3-1.9,.8,0,1.5,.3,2.2,1,.2,.2,.2,.5,0,.7s-.5,.2-.7,0c-.4-.5-.9-.7-1.4-.7h0c-1,0-1.9,.8-2.5,1.6-.4,.4-.7,.8-1,1.3-.3,.2-.4,.3-.6,.3h0Z"></path><path class="cls-34" d="M335.6,294.9c-.1,0-.2,0-.3-.1-3.1-2.6-5.7-5.8-7.7-9.4-.1-.2,0-.5,.2-.7,.2-.1,.5,0,.7,.2,1.8,3.4,4.2,6.3,7.1,8.8,2.9-2.5,5.3-5.4,7.1-8.8,.1-.2,.4-.3,.7-.2,.2,.1,.3,.4,.2,.7-1.9,3.6-4.5,6.8-7.7,9.4-.1,.1-.2,.1-.3,.1Z"></path><path class="cls-34" d="M340.3,266.2c-1.2,0-2.2-.4-2.9-1.1-1-1.1-1.2-2.7-1.2-3.4-.2-.1-.5-.2-.7-.2s-.4,.1-.7,.2c0,.7-.2,2.3-1.2,3.4-.7,.7-1.7,1.1-2.9,1.1-4.4,0-4.4-5-4.4-5.2s.1-.3,.2-.4c.1,0,1.4-.9,3.8-.9,1.9,0,3.4,.8,3.9,1.1,.3-.1,.8-.3,1.1-.3,.4,0,.8,.2,1.1,.3,.6-.3,2-1.1,3.9-1.1,2.4,0,3.8,.8,3.8,.9,.1,.1,.2,.3,.2,.4,.4,.2,.4,5.2-4,5.2Zm-3-4.5c0,.5,.1,1.9,.9,2.7,.5,.5,1.2,.8,2.1,.8,2.9,0,3.3-2.9,3.4-3.9-.5-.2-1.5-.6-3-.6-1.7,0-2.9,.7-3.4,1Zm-9.8-.4c.1,1,.5,3.9,3.4,3.9,.9,0,1.6-.3,2.1-.8,.8-.9,.9-2.2,.9-2.7-.5-.3-1.8-1-3.4-1-1.5,0-2.5,.4-3,.6Z"></path></g></g></g><g class="cls-30"><g><g><path class="cls-8" d="M256.2,326.1c-.5,0-1.1-.5-1.7-.3,0,0-1.4,1.8-2.3,.4v-1.6c1.9-1.6,3.4-4,3.9-6.9,0,0,2.3-.2,2.3-3.8,0-.4,0-.7-.1-1s-.3-.7-.6-.8c-.3-.2-.7-.2-1-.1-.6,.2-1.1,.2-1.4,0-.8-.7-.5-1.2-1.1-1.5s-1.7,.2-2.3-.3c-.6-.6,0-1.4-.3-2.1-.4-.9-1.6-.2-2.2-.7-.6-.4,0-1.7-.8-2.1-1.2-.6-2.3,0-2.3,0,0,0-1.1-1.2-2-.4-.3,.3-.3,.5-.4,.8-.2,.6-1.7,.4-1.7,.4-1.9,.5-.6,2.1-1,2.6-.8,.9-1-.2-2.1,.7-.6,.4-.1,2-1.5,2.2-.4,.1-.8,.3-.9,.7-.1,.4-.3,.9-.3,1.6,0,3.5,2.3,3.8,2.3,3.8,.5,2.9,2.1,5.3,3.9,6.9v1.9c-1.1,.7-2.7-.5-2.7-.5-.6-.1-1.1,.5-2.1,.1-1-.3-1-1.2-1.4-1.4-.7-.4-1.4,.1-2-.1-.8-.3-.6-1.3-1-1.7-.6-.5-1.2,.2-2.1-.3s-.4-1.3-.8-1.8c-.3-.5-1.9-.5-1.9-1.7,0-1.4,.6-1.2,1.1-2.1,.5-.8-.3-1.5,.3-2.5,.6-.9,.8-.4,1.3-1.2,.5-.7,0-1.9,.5-2.5s.9-.6,1.4-1.1,0-1.8,.5-2.7c.5-.9,1.5-.7,2.2-1.4,.5-.5,0-1.5,.7-2.4,.4-.6,1.2-.4,2-.9,.7-.5,.7-1.2,1.2-1.8,.4-.6,1.7-.5,2.2-.8s.5-.9,1.5-1.7c1-.8,2.6-.1,2.6-.1,0,0,.4-1.4,1.5-1.4s1.6,.8,2.3,.9c.7,.1,1.6-.4,2.4-.2,.8,.2,.8,1.1,1.7,1.3,.7,.1,1.7-.5,2.5-.1,.7,.4,.9,1.5,1.4,1.9,.7,.4,1.6-.1,2,.4,.5,.5,.3,1.6,.7,2,.4,.3,1.4,.3,2,1.1,.6,.8,.3,1.8,.5,2.3,.3,.5,1.2,.5,1.6,1.2s-.1,1.5,.1,2.2c.3,.7,.7,.6,1.1,1.3,.5,1-.1,1.8,.2,2.6,.3,.8,1.2,.8,1.4,1.4,.2,.7-.5,1.8-.4,2.4,.2,1.1,.7,1.6,.5,2.4-.3,1.4-1.5,.8-2.2,1.5s-.4,.8-1.2,1.4c-.8,.6-1,0-2,.7s-.8,1.1-1.7,1.3c-.9,.2-1.7-.5-2.2-.2-.8,.8-1.6,1.8-2.1,1.8Z"></path><path class="cls-29" d="M244,305.8c0-.3,.1-.5,.4-.8,.8-.8,2,.4,2,.4,0,0,1.1-.6,2.3,0,.8,.4,.2,1.6,.8,2.1,.6,.4,1.8-.2,2.2,.7,.3,.7-.3,1.6,.3,2.1,.6,.6,1.7,0,2.3,.3,.7,.3,.4,.8,1.1,1.5,.3,.3,.8,.3,1.4,0,.3-.1,.7-.1,1,.1s.5,.5,.6,.8,.1,.6,.1,1c0,3.5-2.3,3.8-2.3,3.8-.5,2.9-2.1,5.4-3.9,6.9-1.5,1.2-3.1,1.9-4.7,1.9s-3.3-.7-4.7-1.9c-1.9-1.6-3.4-4-3.9-6.9,0,0-2.3-.2-2.3-3.8,0-.8,.1-1.3,.3-1.6,.1-.4,.5-.7,.9-.7,1.4-.2,.9-1.7,1.5-2.2,1.2-.9,1.3,.2,2.1-.7,.5-.5-.9-2.1,1-2.6-.1,0,1.3,.2,1.5-.4Z"></path><path class="cls-29" d="M242.8,324.7c1.4,1.2,3.1,1.9,4.7,1.9s3.3-.7,4.7-1.9v3.1c0,1.6,1.3,2.7,3.1,3.7-1.6,1.7-4.7,2.9-4.7,2.9l-3.1,9.4-3.1-9.4s-3.1-1.2-4.7-2.9c1.8-.9,3.1-2,3.1-3.7v-3.1Z"></path><path class="cls-15" d="M269.4,343.9h-22l3.1-9.4s3.1-1.2,4.7-2.9c2.3,1.2,5.4,2,7.4,3.1,6.5,3.5,6.8,7.8,6.8,9.2Z"></path><path class="cls-15" d="M244.3,334.5l3.1,9.4h-22c0-1.4,.3-5.7,6.7-9.2,2-1.1,5.1-2,7.4-3.1,1.7,1.7,4.8,2.9,4.8,2.9Z"></path></g><g><path class="cls-34" d="M225.5,344.4c-.3,0-.5-.2-.5-.5,0-2.2,.9-6.3,7-9.7,1.1-.6,2.4-1.1,3.8-1.6,1.2-.5,2.5-1,3.6-1.5,2-1,2.9-2,2.9-3.2v-3.1c0-.3,.2-.5,.5-.5s.5,.2,.5,.5v3.2c0,2.1-1.9,3.4-3.4,4.1-1.1,.6-2.4,1.1-3.7,1.5-1.4,.5-2.7,1-3.7,1.6-5.6,3.1-6.5,6.8-6.5,8.8,0,.2-.2,.4-.5,.4Z"></path><path class="cls-34" d="M269.4,344.4c-.3,0-.5-.2-.5-.5,0-1.9-.8-5.7-6.5-8.8-1-.6-2.3-1.1-3.7-1.6-1.3-.5-2.6-1-3.7-1.5-1.5-.7-3.4-2-3.4-4.1v-3.1c0-.3,.2-.5,.5-.5s.5,.2,.5,.5v3.2c0,1.2,.9,2.2,2.9,3.2,1.1,.5,2.3,1,3.6,1.5,1.4,.5,2.7,1,3.8,1.6,6.1,3.4,7,7.5,7,9.7,0,.2-.2,.4-.5,.4Z"></path><path class="cls-34" d="M247.5,344.4c-.2,0-.4-.1-.5-.3l-3.1-9.2c-.8-.3-3.2-1.4-4.7-3-.2-.2-.2-.5,0-.7s.5-.2,.7,0c1.5,1.6,4.5,2.8,4.5,2.8l.3,.3,2.7,8,2.7-8c0-.1,.2-.3,.3-.3,0,0,3-1.2,4.5-2.8,.2-.2,.5-.2,.7,0s.2,.5,0,.7c-1.4,1.6-3.9,2.7-4.7,3l-3.1,9.2c.1,.2-.1,.3-.3,.3Z"></path><path class="cls-34" d="M247.5,327.1c-1.7,0-3.5-.7-5-2-2-1.7-3.5-4.2-4.1-6.9-.8-.2-2.4-1.1-2.4-4.2,0-.7,.1-1.3,.3-1.8,.2-.5,.7-.9,1.3-1,.5-.1,.6-.3,.7-1,.1-.4,.2-.9,.6-1.1,.7-.5,1.2-.5,1.6-.4,.2,0,.3,0,.5-.2,0,0-.1-.2-.1-.4-.1-.6-.3-1.9,1.4-2.4,.3-.1,.5,.1,.6,.4s-.1,.5-.4,.6c-.8,.2-.7,.5-.6,1.2,.1,.4,.2,.9-.2,1.3-.6,.6-1,.6-1.4,.5-.2,0-.4-.1-.8,.2-.1,.1-.1,.3-.2,.5-.1,.6-.3,1.6-1.6,1.7-.2,0-.4,.2-.5,.4-.1,.3-.2,.7-.2,1.5,0,3,1.8,3.2,1.9,3.3,.2,0,.4,.2,.4,.4,.5,2.6,1.9,5,3.8,6.6,1.4,1.2,2.9,1.8,4.4,1.8,1.4,0,3-.6,4.4-1.8,1.9-1.6,3.3-4,3.8-6.6,0-.2,.2-.4,.4-.4,.1,0,1.9-.3,1.9-3.3,0-.3,0-.6-.1-.9,0-.2-.2-.4-.3-.5-.2-.1-.4-.1-.6,0-1,.4-1.6,.2-1.9-.1-.5-.4-.6-.8-.8-1.1-.1-.2-.1-.3-.3-.4-.1-.1-.4-.1-.7,0-.5,0-1.2,.1-1.7-.4s-.5-1.1-.4-1.6c0-.3,.1-.5,0-.7s-.2-.2-.8-.2c-.4,0-.9,0-1.2-.3-.4-.3-.5-.9-.5-1.3,0-.5,0-.6-.2-.7-.9-.4-1.8,0-1.9,0-.2,.1-.4,.1-.6-.1-.1-.1-.6-.5-.9-.5q-.2,0-.3,.1c-.1,.1-.2,.3-.2,.5,0,.3,.1,.7,.2,1,.2,.5,.3,.9,.2,1.4-.2,.7-.6,1.1-.9,1.3-.2,.1-.3,.2-.3,.3-.2,.4-.1,.6,0,.9s.2,.7,0,1.3c-.2,.6-.5,.8-.8,1s-.5,.3-.5,1c0,.3-.2,.5-.5,.5s-.5-.2-.5-.5c0-1.2,.5-1.6,1-1.9,.2-.1,.3-.2,.3-.4,.1-.4,0-.5,0-.8-.1-.3-.2-.7,0-1.5,.1-.4,.4-.6,.6-.8,.3-.2,.5-.4,.6-.8,0-.1-.1-.5-.2-.8-.2-.4-.3-.9-.3-1.4,0-.4,.2-.8,.5-1.1,.3-.3,.7-.4,1-.4,.6,0,1.1,.4,1.4,.6,.5-.2,1.4-.3,2.4,.1,.7,.3,.7,1.1,.8,1.6,0,.2,0,.5,.1,.6s.4,.1,.6,.1c.5,0,1.4,0,1.7,.8,.2,.4,.2,.9,.1,1.2,0,.4,0,.6,.1,.7,.2,.2,.6,.1,.9,.1,.4,0,.8-.1,1.2,.1,.5,.2,.6,.6,.8,.9,.1,.2,.2,.5,.5,.7,.2,.2,.6,.1,.9,0,.5-.2,1-.2,1.4,.1,.4,.2,.8,.7,.8,1.2,.1,.3,.1,.6,.1,1,0,3-1.6,3.9-2.4,4.2-.6,2.7-2.1,5.2-4.1,6.9-1.4,1.4-3.1,2.1-4.8,2.1Z"></path><path class="cls-34" d="M238.5,326.9c-.2,0-.5,0-.8-.1-.8-.3-1.1-.8-1.3-1.2-.1-.1-.1-.2-.2-.2-.2-.1-.5-.1-.9-.1-.3,0-.7,.1-1.1,0-.7-.3-.9-.9-1-1.4,0-.1-.1-.3-.1-.4-.1-.1-.2-.1-.6-.1s-.9,.1-1.5-.2c-.8-.4-.8-1.1-.9-1.5,0-.2,0-.3-.1-.4s-.3-.2-.5-.2c-.6-.2-1.5-.7-1.5-1.8,0-1,.3-1.4,.7-1.8,.1-.1,.3-.3,.4-.5s.1-.4,0-.8-.2-1,.2-1.7c.4-.6,.6-.7,.9-.9,.1-.1,.2-.1,.4-.3s.2-.6,.2-1c0-.5,0-1.1,.4-1.5,.3-.4,.6-.6,.9-.7,.2-.1,.3-.2,.5-.4,.1-.1,.1-.5,.1-.8,0-.6,0-1.2,.3-1.7,.4-.6,.9-.9,1.4-1,.3-.1,.6-.2,.9-.5,.1-.1,.1-.3,.1-.6,0-.5,0-1.2,.5-1.8,.4-.5,.8-.6,1.3-.7,.3-.1,.6-.1,.8-.3,.3-.2,.5-.5,.6-.9,.1-.3,.2-.5,.4-.8,.4-.5,1.1-.6,1.7-.7,.2,0,.5-.1,.6-.1l.4-.4c.2-.3,.5-.7,1.1-1.2,.8-.7,2-.5,2.7-.3,.3-.6,.9-1.3,1.8-1.3,.8,0,1.3,.3,1.7,.6,.2,.2,.5,.3,.7,.3s.6,0,.9-.1c.5-.1,1-.2,1.5-.1,.6,.1,.8,.5,1.1,.8,.2,.3,.3,.4,.6,.5,.2,0,.5,0,.8-.1,.6-.1,1.3-.3,1.9,.1,.5,.3,.8,.9,1,1.3,.1,.3,.3,.5,.4,.6,.2,.1,.5,.1,.8,.1,.4,0,1,0,1.4,.4s.5,.9,.5,1.4c0,.2,.1,.5,.1,.6,.1,0,.3,.1,.4,.2,.5,.1,1.2,.3,1.6,1,.4,.6,.5,1.3,.5,1.8,0,.2,0,.4,.1,.5,0,.1,.2,.2,.4,.3,.4,.2,.9,.4,1.1,.9,.3,.5,.2,1.1,.1,1.5,0,.3-.1,.5,0,.8,.1,.2,.2,.3,.3,.4,.2,.1,.5,.3,.7,.8,.4,.7,.3,1.3,.2,1.8-.1,.3-.1,.6,0,.9s.3,.4,.6,.6c.3,.2,.7,.4,.8,.9,.1,.5,0,1-.2,1.5-.1,.4-.2,.8-.2,1,.1,.4,.2,.7,.3,1,.2,.5,.3,1,.2,1.6-.2,1.1-1,1.3-1.6,1.4-.3,.1-.6,.1-.8,.3-.3,.3-.4,.4-.4,.6-.2,.3-.3,.5-.8,.9s-.9,.4-1.2,.4-.5,0-.9,.3-.6,.5-.7,.7c-.3,.3-.5,.6-1.1,.7-.6,.2-1.2,0-1.5-.1-.2-.1-.5-.1-.5-.1-.2,.1-.4,.3-.6,.6-.5,.5-1,.9-1.5,.9-.3,0-.5-.1-.8-.2s-.5-.2-.7-.1-.5,0-.7-.2c-.1-.3,0-.5,.2-.7,.6-.3,1.1-.1,1.5,.1,.2,.1,.3,.1,.4,.1s.5-.4,.8-.7c.3-.3,.5-.5,.8-.7,.5-.3,.9-.1,1.4,0,.3,.1,.7,.2,1,.1,.4-.1,.4-.2,.6-.4,.2-.2,.4-.5,.9-.9,.7-.5,1.1-.5,1.4-.5,.2,0,.4,0,.6-.2,.4-.3,.4-.4,.5-.6s.2-.4,.6-.8,.9-.5,1.3-.6c.5-.1,.7-.2,.8-.7,.1-.3,0-.6-.2-1.1-.1-.3-.2-.7-.3-1.1-.1-.4,.1-.9,.2-1.4,.1-.3,.2-.8,.2-1,0-.1-.1-.2-.4-.3-.3-.2-.7-.5-1-1-.2-.5-.1-1-.1-1.4,.1-.4,.1-.8-.1-1.2-.1-.2-.2-.3-.4-.4-.2-.2-.5-.4-.7-.9s-.1-.9,0-1.2c.1-.4,.1-.6,0-.9-.1-.2-.4-.4-.7-.5-.3-.2-.7-.3-.9-.8-.1-.2-.1-.6-.2-.9,0-.4-.1-.9-.3-1.3-.3-.4-.7-.5-1.1-.6-.3-.1-.6-.2-.8-.4-.3-.3-.4-.7-.5-1.2,0-.3-.1-.7-.2-.8-.1-.1-.3-.1-.6-.1-.4,0-.9,0-1.3-.3-.3-.2-.5-.6-.7-1s-.4-.7-.6-.9c-.3-.2-.7-.1-1.1,0s-.8,.2-1.2,.1c-.6-.1-1-.5-1.2-.9-.2-.2-.3-.4-.5-.4-.3-.1-.7,0-1.1,.1s-.8,.2-1.3,.1c-.4-.1-.8-.3-1.1-.5-.4-.2-.7-.5-1.2-.5-.7,0-1,1-1,1.1s-.1,.3-.3,.3c-.1,.1-.3,.1-.4,0-.4-.2-1.5-.5-2.1,0-.5,.4-.7,.7-.9,1-.2,.3-.4,.6-.7,.7-.2,.1-.6,.2-.9,.3-.4,.1-.9,.2-1.1,.4l-.3,.6c-.2,.4-.4,1-1,1.3-.4,.3-.8,.4-1.1,.4-.4,.1-.6,.1-.7,.3-.3,.4-.3,.8-.3,1.2s0,.9-.4,1.2c-.4,.4-.9,.6-1.3,.7-.4,.2-.7,.3-.9,.6-.2,.3-.2,.8-.2,1.2,0,.6,0,1.2-.4,1.5-.3,.3-.5,.4-.7,.5s-.4,.2-.6,.5c-.1,.2-.1,.5-.1,.9,0,.5,0,1.1-.3,1.6-.3,.4-.5,.6-.8,.7-.1,.1-.3,.1-.5,.5-.2,.3-.2,.6-.1,1s.2,.9-.2,1.5c-.2,.3-.4,.6-.6,.7-.3,.3-.4,.4-.4,1.1,0,.4,.3,.6,.9,.9,.4,.2,.7,.3,.9,.6,.2,.3,.2,.6,.3,.9,0,.4,.1,.6,.4,.7,.3,.2,.6,.1,.9,.1,.4,0,.8-.1,1.3,.3,.3,.2,.4,.6,.5,.9,.1,.4,.2,.6,.4,.7h.6c.4-.1,.9-.1,1.5,.2,.3,.1,.4,.4,.5,.6,.2,.3,.3,.6,.8,.7,.4,.2,.8,.1,1.1,0,.3-.1,.6-.2,.9-.1,.3,0,.5,.3,.4,.6,0,.3-.3,.5-.6,.4-.1,0-.3,0-.5,.1,0,0-.3,.1-.7,.1Z"></path></g></g></g><g class="cls-25"><g><g><path class="cls-14" d="M146.9,285.8c-2.1-1-3.8-2-3.9-3.7v-.1c0-4.4,5.8-6.3,7.8-6.3h2.3c-.1,1-.6,1.8-1.5,2.5-1,.9-2.5,1.7-4,2.3,0,1.9,4.6,3.4,6,10-.9-2.3-4-3.5-6.7-4.7Z"></path><path class="cls-14" d="M172,285.8c-2.6,1.2-5.8,2.4-6.8,4.8,1.3-6.6,6-8.1,6-10-1.5-.6-3-1.4-4-2.3-.8-.7-1.4-1.6-1.5-2.5h2.3c2.1,0,7.8,1.9,7.8,6.3v.1c.1,1.6-1.7,2.6-3.8,3.6Z"></path><path class="cls-33" d="M183,292.1h-11v-6.4c2.1-1,3.8-2,3.9-3.7,.1,0,.2,.1,.3,.1,6.8,3.4,6.8,6.5,6.8,10Z"></path><path class="cls-13" d="M172.3,255.3c.1,.6-.3,1.2-.8,1.5,.5,.5,.7,1.7,.5,2.3-.2,.7-.9,1.5-1.6,1.7-.2-.1-.4-.1-.6-.1h-.1c-2,0-.8-3.1-1.8-5.5-.8-1.9-3.4-3.1-8.4-3.1s-7.5,1.2-8.4,3.1c-1,2.4,.2,5.5-1.8,5.5h-.1c-.2,0-.4,0-.6,.1-.7-.1-1.3-1-1.6-1.7-.2-.7,.1-1.8,.5-2.3-.6-.3-.9-.9-.8-1.5,.1-.6,.5-1.2,1.1-1.3-.4-.4-.6-1-.5-1.5,.2-.6,.6-1,1.2-1-.3-.6-.2-1.4,.3-1.9s1.2-.7,1.9-.5c0-.6,.3-1.3,.8-1.6,.5-.4,1.2-.4,1.8-.2,.1-.6,.4-1.1,.9-1.3,.5-.2,1.1-.1,1.6,.2,.2-.5,.6-.9,1.2-1,.5-.1,1.1,.1,1.4,.5,.3-.4,.7-.6,1.2-.6s.9,.2,1.2,.6c.4-.4,.9-.6,1.4-.5s1,.5,1.2,1c.5-.4,1.1-.4,1.6-.2,.5,.2,.9,.7,.9,1.3,.6-.3,1.3-.2,1.8,.2,.5,.4,.8,1,.8,1.6,.7-.2,1.4,0,1.9,.5s.6,1.3,.3,1.9c.6,.1,1,.5,1.2,1s0,1.1-.5,1.5c.4,.2,.9,.7,.9,1.3Z"></path><path class="cls-33" d="M172,285.8v6.4h-7.1c0-.6,.1-1.1,.3-1.6,1-2.4,4.2-3.6,6.8-4.8Z"></path><path class="cls-29" d="M171.2,261.8v.5c0,3.5-2.5,3.7-2.5,3.7-.4,2.2-1.3,4.4-3,6-.5,.5-1,.9-1.6,1.2-1.2,.7-1.7,1.6-4.7,1.6s-3.5-.9-4.7-1.6c-.6-.3-1.1-.7-1.6-1.2-1.6-1.6-2.5-3.8-3-6,0,0-2.5-.2-2.5-3.7v-.5c0-.3,.2-.6,.5-.8,.1-.1,.2-.1,.3-.2,.2-.1,.4-.1,.6-.1h.1c2,0,.8-3.1,1.8-5.5,.8-1.9,3.4-3.1,8.4-3.1s7.5,1.2,8.4,3.1c1,2.4-.2,5.5,1.8,5.5h.1c.2,0,.4,0,.6,.1,.1,0,.2,.1,.3,.2,.5,.1,.7,.4,.7,.8Z"></path><path class="cls-10" d="M171.2,280.5c0,1.9-4.6,3.4-6,10-.2,.5-.3,1-.3,1.6h-11c0-.6-.1-1.1-.3-1.6-1.3-6.6-6-8.1-6-10,1.5-.6,3-1.4,4-2.3,1.3,3.2,4.3,5.3,7.8,5.3s6.5-2.1,7.8-5.3c1,.9,2.5,1.7,4,2.3Z"></path><path class="cls-29" d="M153.2,275.6v-3.5c.5,.5,1,.9,1.6,1.2,1.2,.7,1.7,1.6,4.7,1.6s3.5-.9,4.7-1.6c.6-.3,1.1-.7,1.6-1.2v3.5c.1,1,.6,1.8,1.5,2.5-1.3,3.2-4.3,5.3-7.8,5.3s-6.5-2.1-7.8-5.3c.8-.6,1.4-1.5,1.5-2.5Z"></path><path class="cls-33" d="M154,292.1h-7.1v-6.4c2.6,1.2,5.8,2.4,6.8,4.8,.2,.5,.3,1,.3,1.6Z"></path><path class="cls-33" d="M146.9,285.8v6.4h-11c0-3.5,0-6.6,6.7-10,.1,0,.2-.1,.3-.1,.2,1.7,1.9,2.7,4,3.7Z"></path></g><g><path class="cls-34" d="M171.2,281h-.2c-1.8-.7-3.2-1.5-4.2-2.4s-1.5-1.9-1.6-2.9v-3.6c0-.3,.2-.5,.5-.5s.5,.2,.5,.5v3.4c.1,.8,.5,1.5,1.3,2.3,.9,.8,2.2,1.6,3.9,2.2,.3,.1,.4,.4,.3,.7-.1,.2-.3,.3-.5,.3Z"></path><path class="cls-34" d="M147.7,281c-.2,0-.4-.1-.5-.3-.1-.3,0-.5,.3-.7,1.7-.7,3-1.4,3.9-2.2,.8-.7,1.2-1.5,1.3-2.2v-3.5c0-.3,.2-.5,.5-.5s.5,.2,.5,.5v3.6c-.1,1-.6,2-1.6,2.8-1,.9-2.4,1.7-4.2,2.4,0,.1-.1,.1-.2,.1Z"></path><path class="cls-34" d="M183,292.6c-.3,0-.5-.2-.5-.5,0-3.5,0-6.3-6.4-9.5l-.3-.1c-.3-.1-.4-.3-.4-.6,.1-.3,.3-.4,.6-.4l.3,.1h.1c7,3.6,7,6.9,7,10.5,.1,.3-.1,.5-.4,.5Z"></path><path class="cls-34" d="M135.9,292.6c-.3,0-.5-.2-.5-.5,0-3.5,0-6.9,7-10.5h.1l.3-.1c.3-.1,.5,.1,.6,.4s-.1,.5-.4,.6l-.3,.1c-6.4,3.3-6.4,6-6.4,9.5,.1,.3-.1,.5-.4,.5Z"></path><path class="cls-34" d="M159.5,275.4c-2.6,0-3.5-.6-4.3-1.2-.2-.1-.4-.3-.7-.4-.6-.3-1.2-.8-1.7-1.3-1.5-1.4-2.5-3.4-3.1-6-.8-.2-2.6-1.1-2.6-4.2v-.6c0-.5,.3-.9,.7-1.2,.1-.1,.3-.2,.4-.2h0c.3-.1,.6-.1,.9-.1,.7,0,.8-.3,.9-2,0-1,.1-2.1,.6-3.2,1-2.3,4-3.4,8.8-3.4s7.8,1.2,8.8,3.4c.5,1,.5,2.2,.6,3.2,.1,1.7,.2,2,.8,2,.4-.1,.7,0,1,.1,.1,.1,.3,.1,.4,.2,.4,.3,.6,.7,.7,1.2v.6c0,3.1-1.8,3.9-2.6,4.2-.6,2.5-1.6,4.5-3.1,6-.5,.5-1.1,.9-1.7,1.3-.2,.1-.4,.3-.7,.4-.7,.6-1.5,1.2-4.1,1.2Zm-10.6-14.2h-.2c-.1,0-.1,.1-.2,.1-.1,.1-.2,.3-.3,.5v.5c0,3,2,3.2,2,3.3,.2,0,.4,.2,.4,.4,.5,2.5,1.5,4.4,2.8,5.8,.5,.4,.9,.8,1.5,1.1,.3,.2,.5,.3,.7,.5,.8,.6,1.5,1,3.7,1s2.9-.5,3.7-1c.2-.2,.5-.3,.7-.5,.5-.3,1-.7,1.5-1.1,1.4-1.4,2.4-3.3,2.8-5.8,0-.2,.2-.4,.4-.4,.1,0,2-.3,2-3.3v-.5c0-.2-.1-.4-.3-.5,0,0-.1-.1-.2-.1s-.2-.1-.4,0h-.2c-1.7,0-1.7-1.6-1.8-3,0-.9-.1-1.9-.5-2.8-.8-1.9-3.5-2.8-7.9-2.8s-7.1,1-7.9,2.8c-.4,.9-.4,1.9-.5,2.8-.1,1.4-.1,3-1.8,3h-.2q.3,0,.2,0Z"></path><path class="cls-34" d="M160.7,246.1c-.1,0-.3-.1-.4-.2-.4-.5-1.2-.5-1.6,0-.2,.2-.5,.3-.7,.1-.2-.2-.3-.5-.1-.7,.8-.9,2.4-.9,3.1,0,.2,.2,.1,.5-.1,.7,0,.1-.1,.1-.2,.1Z"></path><path class="cls-34" d="M163.2,246.6c-.2,0-.4-.1-.5-.3-.1-.3-.4-.6-.8-.6-.4-.1-.7,.1-1,.3-.2,.2-.5,.2-.7,0s-.2-.5,0-.7c.5-.5,1.2-.8,1.9-.6,.7,.1,1.3,.6,1.5,1.3,.1,.3,0,.5-.3,.6,.1,0,0,0-.1,0Z"></path><path class="cls-34" d="M155.7,246.6h-.2c-.3-.1-.4-.4-.3-.6,.2-.7,.8-1.2,1.5-1.3,.7-.1,1.4,.1,1.9,.6,.2,.2,.2,.5,0,.7s-.5,.2-.7,0c-.2-.3-.6-.4-1-.3s-.7,.3-.8,.6c0,.2-.2,.3-.4,.3Z"></path><path class="cls-34" d="M165.8,247.7c-.3,0-.5-.2-.5-.5,0-.4-.3-.7-.7-.9-.4-.1-.8-.1-1.1,.2-.2,.2-.5,.1-.7-.1s-.1-.5,.1-.7c.6-.5,1.4-.6,2.1-.3,.7,.3,1.2,1,1.3,1.7,0,.3-.2,.5-.5,.6h0Z"></path><path class="cls-34" d="M153.2,247.7s-.1,0,0,0c-.3,0-.5-.3-.5-.5,.1-.8,.6-1.4,1.2-1.7,.7-.3,1.5-.2,2.1,.3,.2,.2,.3,.5,.1,.7s-.5,.3-.7,.1c-.3-.2-.7-.3-1.1-.1-.3,.2-.6,.5-.6,.9-.1,.1-.3,.3-.5,.3Z"></path><path class="cls-34" d="M168.4,249.5h0c-.3,0-.5-.2-.5-.5,0-.5-.2-.9-.6-1.2-.4-.3-.9-.3-1.3-.1-.3,.1-.5,0-.7-.3-.1-.3,0-.5,.3-.7,.8-.3,1.6-.2,2.3,.2,.7,.5,1.1,1.2,1,2.1,0,.3-.2,.5-.5,.5Z"></path><path class="cls-34" d="M150.6,249.5c-.3,0-.5-.2-.5-.5,0-.8,.4-1.6,1-2.1,.7-.5,1.5-.6,2.3-.2,.3,.1,.4,.4,.3,.7-.1,.3-.4,.4-.7,.3-.4-.2-.9-.1-1.3,.1-.4,.3-.6,.7-.6,1.2,0,.2-.3,.5-.5,.5h0Z"></path><path class="cls-34" d="M170.5,251.9h-.2c-.2-.1-.4-.4-.2-.7,.2-.5,.1-1-.2-1.4s-.9-.5-1.3-.4c-.3,.1-.5-.1-.6-.3-.1-.3,.1-.5,.3-.6,.9-.3,1.8,0,2.4,.7,.6,.7,.7,1.6,.3,2.5-.1,.1-.3,.2-.5,.2Z"></path><path class="cls-34" d="M148.4,251.9c-.2,0-.4-.1-.5-.3-.4-.8-.2-1.8,.3-2.5,.6-.7,1.5-1,2.4-.7,.3,.1,.4,.4,.3,.6-.1,.3-.4,.4-.6,.3-.5-.1-1,0-1.3,.4s-.4,.9-.2,1.4c.1,.2,0,.5-.2,.7,0,.1-.1,.1-.2,.1Z"></path><path class="cls-34" d="M171.2,254.5c-.1,0-.3-.1-.4-.2-.2-.2-.1-.5,.1-.7,.3-.2,.4-.6,.3-1-.1-.4-.4-.6-.8-.7-.3,0-.5-.3-.4-.6,0-.3,.3-.5,.6-.4,.8,.1,1.4,.7,1.6,1.4,.2,.7,0,1.5-.6,2-.1,.1-.2,.2-.4,.2Z"></path><path class="cls-34" d="M147.7,254.5c-.1,0-.2,0-.3-.1-.6-.5-.8-1.3-.6-2s.8-1.3,1.6-1.4c.3,0,.5,.1,.6,.4,0,.3-.1,.5-.4,.6-.4,.1-.7,.3-.8,.7-.1,.4,0,.7,.3,1,.2,.2,.2,.5,.1,.7-.2,0-.3,.1-.5,.1Z"></path><path class="cls-34" d="M171.5,257.3c-.2,0-.4-.1-.4-.3-.1-.2,0-.5,.2-.7,.4-.2,.6-.6,.6-1s-.3-.8-.7-.9c-.3-.1-.4-.4-.3-.6,.1-.3,.4-.4,.6-.3,.8,.2,1.4,.9,1.4,1.8,.1,.8-.4,1.6-1.1,2h-.3Z"></path><path class="cls-34" d="M147.5,257.3c-.1,0-.2,0-.2-.1-.7-.4-1.2-1.2-1.1-2,.1-.8,.7-1.5,1.4-1.8,.3-.1,.5,.1,.6,.3,.1,.3-.1,.5-.3,.6-.4,.1-.7,.5-.7,.9s.2,.8,.6,1c.2,.1,.3,.4,.2,.7-.2,.3-.4,.4-.5,.4Z"></path><path class="cls-34" d="M170.5,261.3c-.2,0-.4-.2-.5-.4,0-.3,.1-.5,.4-.6,.4-.1,1-.8,1.2-1.3s-.1-1.4-.4-1.8c-.2-.2-.2-.5,0-.7s.5-.2,.7,0c.6,.7,.9,2,.6,2.8-.2,.7-1,1.8-2,2h0Z"></path><path class="cls-34" d="M148.5,261.3s-.1,0,0,0c-1-.2-1.8-1.3-2-2-.3-.8,0-2.1,.6-2.8,.2-.2,.5-.2,.7,0s.2,.5,0,.7c-.4,.4-.6,1.4-.4,1.8,.2,.5,.8,1.2,1.2,1.3,.3,.1,.5,.3,.4,.6-.1,.2-.3,.4-.5,.4Z"></path><path class="cls-34" d="M159.5,284c-3.6,0-6.9-2.3-8.2-5.6-.1-.3,0-.5,.3-.6s.5,0,.6,.3c1.2,3,4.1,5,7.3,5s6.1-2,7.3-5c.1-.3,.4-.4,.6-.3,.3,.1,.4,.4,.3,.6-1.3,3.3-4.6,5.6-8.2,5.6Z"></path><path class="cls-34" d="M165,292.6c-.3,0-.5-.2-.5-.5,0-.6,.1-1.2,.3-1.8,.9-2.3,3.5-3.5,6-4.6,.3-.2,.7-.3,1-.4,2.2-1,3.6-1.9,3.6-3.3,0-4.1-5.3-5.9-7.3-5.9-.3,0-.5-.2-.5-.5s.2-.5,.5-.5c2.4,0,8.3,2,8.3,6.8v.2c-.1,2-2.1,3.1-4.2,4.1-.3,.2-.7,.3-1,.5-2.3,1.1-4.7,2.2-5.5,4.1-.2,.4-.3,.9-.3,1.4,.1,.2-.2,.4-.4,.4Z"></path><path class="cls-34" d="M154,292.6c-.3,0-.5-.2-.5-.5,0-.5-.1-1-.3-1.4-.8-1.9-3.2-3-5.5-4.1-.3-.2-.7-.3-1-.5-2.1-1-4.1-2.1-4.2-4.2h0v-.1c0-4.8,6-6.8,8.3-6.8,.3,0,.5,.2,.5,.5s-.2,.5-.5,.5c-2,0-7.3,1.8-7.3,5.8,.1,1.4,1.4,2.4,3.6,3.4,.3,.1,.6,.3,1,.4,2.5,1.1,5.1,2.3,6,4.6,.2,.6,.3,1.2,.3,1.8,.1,.4-.1,.6-.4,.6Z"></path><path class="cls-34" d="M165.3,291q-.1,0,0,0c-.4-.1-.5-.3-.5-.6,.9-4.3,3.1-6.5,4.5-8,.8-.8,1.4-1.4,1.4-1.9,0-.3,.2-.5,.5-.5s.5,.2,.5,.5c0,.9-.7,1.7-1.7,2.6-1.5,1.5-3.5,3.5-4.3,7.5,0,.3-.2,.4-.4,.4Z"></path><path class="cls-34" d="M153.7,291c-.2,0-.4-.2-.5-.4-.8-4-2.8-6-4.3-7.5-.9-.9-1.7-1.7-1.7-2.6,0-.3,.2-.5,.5-.5s.5,.2,.5,.5c0,.5,.6,1.1,1.4,1.9,1.5,1.5,3.7,3.7,4.5,8,.1,.3,0,.6-.4,.6h0Z"></path><path class="cls-34" d="M172,292.6c-.3,0-.5-.2-.5-.5v-7.8c0-.3,.2-.5,.5-.5s.5,.2,.5,.5v7.8c0,.3-.2,.5-.5,.5Z"></path><path class="cls-34" d="M146.9,292.6c-.3,0-.5-.2-.5-.5v-7.8c0-.3,.2-.5,.5-.5s.5,.2,.5,.5v7.8c0,.3-.2,.5-.5,.5Z"></path></g></g></g><g class="cls-38"><g><g><path class="cls-17" d="M174.4,169.9s-2.2,4.2-7.8,5.5c.4-2.1,.7-4.1,.7-6.1h0v-1.5c0-8.8-3-15.2-7.1-15.2-2.4,0-3.1,.8-3.1,.8-5.6-.9-4.9,6.3-7.5,7-.3,.1-.6,.3-.8,.7s-.3,.9-.3,1.7c0,3.5,2.3,3.7,2.3,3.7,.5,2.9,2.1,5.3,3.9,6.9-.8,0-3.9-.4-3.9-.4-2.4-.1-4.7-1.6-4.7-1.6,0,0-1.2-25.1,9.4-25.1,1.5,0,2.4,.8,2.4,.8,0,0,.9-1.6,4.7-1.6,8.5,.1,11.8,17.4,11.8,24.4Z"></path><path class="cls-29" d="M150.8,166.6s-2.3-.2-2.3-3.7c0-.8,.1-1.4,.3-1.7,.1-.3,.4-.6,.8-.7,2.6-.7,1.9-7.9,7.5-7,0,0,.7-.8,3.1-.8,4,0,7.1,6.3,7.1,15.2v1.5h0c-.8,1.7-1.8,3.1-3.1,4.2-1.4,1.2-3.1,1.9-4.7,1.9s-3.3-.7-4.7-1.9h0c-1.9-1.7-3.4-4.1-4-7Z"></path><path class="cls-26" d="M181.4,192.7h-11l1.6-2.4-1.8-1.8,1.8-1.3-.9-5.3c1.3,.5,2.6,1,3.6,1.5,6.4,3.6,6.7,7.9,6.7,9.3Z"></path><path class="cls-5" d="M170.2,188.5l1.8,1.8-1.6,2.4h-5.5c1.1-2.7,1.9-5.5,2.5-8.6,.2-1.1,.4-2.2,.6-3.4,0-.2,.1-.5,.1-.7l2.9,1.2,.1,.8,.9,5.3-1.8,1.2Z"></path><path class="cls-29" d="M168,180.6c-.2,1.2-.3,2.3-.6,3.4-2.6,1-5.2,1.6-8,1.6s-5.4-.5-8-1.6c-.2-1.1-.4-2.2-.6-3.4,2.1-1,3.8-2.2,3.8-4v-3.1c1.4,1.2,3.1,1.9,4.7,1.9s3.3-.7,4.7-1.9v3.1c.2,1.9,1.9,3.1,4,4Z"></path><path class="cls-1" d="M167.4,184c-.6,3.1-1.4,5.9-2.5,8.6h-11c-1.1-2.7-1.9-5.5-2.5-8.6,2.6,1,5.2,1.6,8,1.6s5.5-.5,8-1.6Z"></path><path class="cls-5" d="M148.7,188.5l-1.8-1.3,.9-5.3,.1-.8,2.9-1.2c0,.3,.1,.5,.1,.7,.2,1.2,.3,2.3,.6,3.4,.6,3.1,1.4,5.9,2.5,8.6h-5.5l-1.6-2.4,1.8-1.7Z"></path><path class="cls-26" d="M148.7,188.5l-1.8,1.8,1.6,2.4h-11c0-1.4,.3-5.7,6.7-9.2,1-.6,2.3-1,3.6-1.5l-.9,5.3,1.8,1.2Z"></path></g><g><path class="cls-34" d="M137.5,193.2c-.3,0-.5-.2-.5-.5,0-2.2,.9-6.3,7-9.7,1.1-.6,2.4-1.1,3.6-1.6,.3-.1,.5,0,.6,.3s0,.5-.3,.6c-1.2,.4-2.5,1-3.5,1.5-5.6,3.1-6.5,6.8-6.5,8.8,.1,.4-.1,.6-.4,.6Z"></path><path class="cls-34" d="M181.4,193.2c-.3,0-.5-.2-.5-.5,0-1.9-.8-5.7-6.5-8.8-1-.6-2.3-1.1-3.5-1.5-.3-.1-.4-.4-.3-.6,.1-.3,.4-.4,.6-.3,1.2,.5,2.6,1,3.6,1.6,6.1,3.4,7,7.5,7,9.7,.1,.2-.1,.4-.4,.4Z"></path><path class="cls-34" d="M168,181.1h-.2c-1.9-.9-4.1-2.2-4.1-4.4v-3.2c0-.3,.2-.5,.5-.5s.5,.2,.5,.5v3.2c0,1.3,1.1,2.4,3.5,3.5,.3,.1,.4,.4,.2,.7,0,.1-.2,.2-.4,.2Z"></path><path class="cls-34" d="M151,181.1c-.2,0-.4-.1-.5-.3-.1-.3,0-.5,.2-.7,2.4-1.1,3.5-2.2,3.5-3.5v-3.2c0-.3,.2-.5,.5-.5s.5,.2,.5,.5v3.2c0,2.3-2.2,3.6-4.1,4.4,0,.1-.1,.1-.1,.1Z"></path><path class="cls-34" d="M165,193.2h-.2c-.3-.1-.4-.4-.3-.6,1.1-2.8,1.9-5.6,2.4-8.5,.2-1,.4-2.1,.6-3.4l.1-.7c0-.2,.1-.3,.2-.4s.3-.1,.4,0l2.9,1.2c.2,.1,.3,.2,.3,.4l1,6.1c0,.2,0,.4-.2,.5l-3.1,2.4c-.2,.2-.5,.1-.7-.1-.2-.2-.1-.5,.1-.7l2.9-2.2-.9-5.5-2-.8v.1c-.2,1.3-.4,2.4-.6,3.4-.6,3-1.4,5.9-2.5,8.7,0,0-.2,.1-.4,.1Z"></path><path class="cls-34" d="M154,193.2c-.2,0-.4-.1-.5-.3-1.1-2.8-1.9-5.7-2.5-8.7-.2-1-.4-2.1-.6-3.4v-.1l-2,.8-.9,5.5,2.9,2.2c.2,.2,.3,.5,.1,.7s-.5,.3-.7,.1l-3.2-2.4c-.1-.1-.2-.3-.2-.5l1-6.1c0-.2,.1-.3,.3-.4l2.9-1.2c.1-.1,.3,0,.4,0s.2,.2,.2,.4l.1,.7c.2,1.3,.4,2.4,.6,3.4,.6,3,1.4,5.8,2.4,8.5,.1,.3,0,.5-.3,.6,.1,.2,0,.2,0,.2Z"></path><path class="cls-34" d="M170.5,193.2c-.1,0-.2,0-.3-.1-.2-.2-.3-.5-.1-.7l1.3-2-1.5-1.5c-.2-.2-.2-.5,0-.7s.5-.2,.7,0l1.8,1.8c.2,.2,.2,.4,.1,.6l-1.6,2.4c-.1,.1-.3,.2-.4,.2Z"></path><path class="cls-34" d="M148.5,193.2c-.2,0-.3-.1-.4-.2l-1.6-2.4c-.1-.2-.1-.5,.1-.6l1.8-1.8c.2-.2,.5-.2,.7,0s.2,.5,0,.7l-1.5,1.5,1.3,2c.2,.2,.1,.5-.1,.7-.1,0-.2,.1-.3,.1Z"></path><path class="cls-34" d="M159.5,186.1c-2.7,0-5.5-.5-8.1-1.6-.2-.1-.3-.3-.3-.5,0-.3,.2-.5,.5-.5h.2c5.1,2,10.5,2,15.5,0,.3-.1,.7,.1,.7,.5,0,.2-.2,.4-.4,.5-2.7,1.1-5.4,1.6-8.1,1.6Z"></path><path class="cls-34" d="M166.5,175.9c-.1,0-.3,0-.3-.1-.1-.1-.2-.3-.1-.5,.4-2.1,.7-4.1,.7-6,0-.3,.2-.5,.5-.5s.5,.2,.5,.5c-.1,1.7-.3,3.5-.6,5.4,4.3-1.3,6.3-4.3,6.7-4.9,0-7.1-3.3-23.7-11.3-23.7-3.4,0-4.3,1.3-4.3,1.3-.1,.1-.2,.2-.4,.2-.1,0-.3,0-.4-.1,0,0-.8-.7-2-.7-1.6,0-3,.6-4.2,1.9-5.1,5.3-4.8,20.3-4.8,22.5,.6,.4,2.5,1.3,4.2,1.4,.3,0,.5,.2,.5,.5s-.3,.5-.5,.5c-2.5-.1-4.9-1.6-5-1.6-.1-.1-.2-.2-.2-.4,0-.7-.7-17.4,5-23.5,1.4-1.4,3-2.2,4.9-2.2,1,0,1.8,.3,2.3,.6,.6-.5,1.9-1.4,4.8-1.4,9.2,0,12.3,18.5,12.3,24.8,0,.1,0,.2-.1,.2-.1,.2-2.4,4.4-8.2,5.7q.1,.1,0,.1Z"></path><path class="cls-34" d="M154.8,174c-.1,0-.2,0-.3-.1-2-1.7-3.5-4.2-4-6.9-.8-.2-2.4-1.1-2.4-4.2,0-.8,.1-1.4,.4-1.9,.2-.5,.6-.8,1.1-.9,.8-.2,1.2-1.4,1.8-2.6,.9-2.1,2.1-5,5.8-4.5,.4-.3,1.4-.8,3.3-.8,4.4,0,7.6,6.6,7.6,15.6v1.5c0,.3-.2,.5-.5,.5s-.5-.3-.5-.5v-1.5c0-8.4-2.8-14.6-6.6-14.6-2.1,0-2.8,.6-2.8,.6-.1,.1-.3,.2-.4,.1-3.1-.5-4,1.7-4.9,3.9-.6,1.4-1.2,2.8-2.4,3.1-.2,.1-.4,.2-.4,.4-.2,.4-.3,.9-.3,1.5,0,3,1.8,3.2,1.9,3.3,.2,0,.4,.2,.4,.4,.5,2.6,1.9,5,3.8,6.6,.2,.2,.2,.5,.1,.7-.5,.2-.6,.3-.7,.3Z"></path><path class="cls-34" d="M159.5,175.9c-1.7,0-3.5-.7-5-2-.2-.2-.2-.5-.1-.7,.2-.2,.5-.2,.7-.1,1.4,1.2,2.9,1.8,4.4,1.8s3-.6,4.4-1.8c1.2-1,2.3-2.4,3-4,.1-.2,.3-.3,.5-.3,.3,0,.5,.2,.5,.5h0v.2c-.8,1.7-1.9,3.2-3.2,4.4-1.7,1.3-3.5,2-5.2,2Z"></path></g></g></g><g class="cls-31"><g><path class="cls-33" d="M340.4,181.1v9.6h-26.7c0-1.4,.3-5.7,6.7-9.2,.4-.2,.7-.4,1.2-.6,1.6-.7,3.6-1.4,5.3-2.1,2.5,2.2,5.6,3.3,8.7,3.3,.5,0,.9,0,1.4-.1,.1,0,2.3-.3,3.4-.9Z"></path><path class="cls-29" d="M335.7,182c-3.1,0-6.2-1.1-8.7-3.3,2.2-1,4-2.2,4-4.1v-3.1c1.4,1.2,3.1,1.9,4.7,1.9,1.5,0,3.1-.6,4.5-1.7l.2,.3v9.1c-1.1,.6-3.3,.9-3.3,.9h-1.4Z"></path><path class="cls-29" d="M331,171.5c-1.9-1.6-3.4-4-3.9-6.9,0,0-2.3-.2-2.3-3.7,0-.3,0-.6,.1-.9,.2-1.1,.7-1.5,.7-1.5,1.6,0,1.6-1.6,1.6-1.6,0,0,.1-4.9,2.4-6.3,0,0,.2,4.5,1.6,6.3,0,0,6.3,2.4,14.3,1.6,.5,0,1.1,.3,1.2,.8,.1,.4,.2,.8,.2,1.5,0,3.5-2.3,3.7-2.3,3.7-.6,3-2.2,5.5-4.2,7.1-1.4,1.1-3,1.7-4.5,1.7-1.8,.1-3.4-.6-4.9-1.8Z"></path><path class="cls-33" d="M357.7,190.2v.5h-17.3v-.8c4.3-.9,7.8-3.1,10.2-7.1v-1.5c.1,0,.2,.1,.3,.2,.8,.4,1.4,.9,2,1.3,.6,.5,1.2,.9,1.6,1.4,.2,.1,.3,.3,.4,.5l.3,.3c.1,.1,.1,.2,.2,.3,.2,.2,.3,.4,.4,.6,.1,.1,.1,.2,.2,.3,.2,.3,.4,.6,.5,.9,.1,.2,.2,.4,.3,.5,.1,.3,.3,.6,.3,.9,0,.1,.1,.2,.1,.3s0,.2,.1,.3c0,.1,0,.2,.1,.3,0,.1,0,.2,.1,.3,0,.2,.1,.4,.1,.6q.1-.2,.1-.1Z"></path><path class="cls-19" d="M357.6,189.4c0-.1,0-.2-.1-.3,.1,.1,.1,.2,.1,.3Z"></path><path class="cls-19" d="M357.5,189.1c0-.1,0-.2-.1-.3q.1,.2,.1,.3Z"></path><path class="cls-19" d="M357.4,188.6c0-.1-.1-.2-.1-.3,.1,.1,.1,.2,.1,.3Z"></path><path class="cls-19" d="M356.7,186.9c.1,.2,.2,.4,.3,.5-.1-.1-.2-.3-.3-.5Z"></path><path class="cls-19" d="M356.2,186.1c-.1-.1-.1-.2-.2-.3,.1,.1,.2,.2,.2,.3Z"></path><path class="cls-19" d="M355.6,185.2c-.1-.1-.1-.2-.2-.3,.1,.1,.1,.2,.2,.3Z"></path><path class="cls-19" d="M355.1,184.6c-.1-.2-.3-.3-.4-.5,.1,.2,.2,.3,.4,.5Z"></path><path class="cls-26" d="M339.6,143.6c-3.3,0-4.7,1.6-4.7,1.6,0,0-.9-.8-2.6-.8-2.8,0-7.7,3.2-9.8,15.3-.9,5.2-1.3,12.1-.9,21.2,1.6-.7,3.6-1.4,5.3-2.1,2.2-1,4-2.2,4-4.1v-3.1c-1.9-1.6-3.4-4-3.9-6.9,0,0-2.3-.2-2.3-3.7,0-.3,0-.6,.1-.9,.2-1.1,.7-1.5,.7-1.5,1.6,0,1.6-1.6,1.6-1.6,0,0,.1-4.9,2.4-6.3,0,0,.2,4.5,1.6,6.3,0,0,6.3,2.4,14.3,1.6,.5,0,1.1,.3,1.2,.8,.1,.4,.2,.8,.2,1.5,0,3.5-2.3,3.7-2.3,3.7-.6,3-2.2,5.5-4.2,7.1l.2,.3v17.9c4.3-.9,7.8-3.1,10.2-7.1v-1.5c.1-7.5,.2-37.7-11.1-37.7Z"></path><g><path class="cls-34" d="M335.7,173.9c-1.7,0-3.5-.7-5-2-2-1.7-3.5-4.2-4.1-6.9-.8-.2-2.4-1.1-2.4-4.2,0-.4,0-.7,.1-1,.2-1.3,.8-1.7,.9-1.8s.2-.1,.3-.1c1,0,1.1-.9,1.1-1.1s.1-5.2,2.6-6.7c.2-.1,.3-.1,.5,0s.3,.2,.3,.4c0,0,.2,4.1,1.4,5.9,1,.3,6.8,2.2,13.9,1.6,.8-.1,1.5,.4,1.7,1.1,.2,.5,.2,1,.2,1.7,0,3-1.6,3.9-2.4,4.2-.6,2.8-2.2,5.4-4.3,7.1-1.5,1.2-3.2,1.8-4.8,1.8Zm-10-14.9c-.1,.1-.3,.5-.4,1h0c0,.2-.1,.5-.1,.8,0,3,1.9,3.2,1.9,3.3,.2,0,.4,.2,.4,.4,.5,2.6,1.9,5,3.8,6.6,1.4,1.2,2.9,1.8,4.4,1.8,1.4,0,2.9-.6,4.2-1.6,2-1.6,3.5-4.1,4-6.8,0-.2,.2-.4,.4-.4,.1,0,1.9-.3,1.9-3.3,0-.5-.1-1-.2-1.3s-.4-.5-.7-.4c-7.9,.7-14.2-1.6-14.5-1.7-.1,0-.2-.1-.2-.2-1-1.4-1.4-4.1-1.6-5.5-1.1,1.4-1.4,4.2-1.4,5.3,0,.7-.5,1.9-1.9,2Z"></path><path class="cls-34" d="M357.7,190.7c-.3,0-.5-.2-.5-.5v-.2c0-.3,.2-.5,.5-.5s.5,.2,.5,.5h0v.1c0,.4-.2,.6-.5,.6Z"></path><path class="cls-34" d="M357.6,189.9c-.3,0-.5-.2-.5-.5v-.2c0-.1,0-.2-.1-.3-.1-.3,.1-.5,.4-.6s.5,.1,.6,.4c0,.1,0,.2,.1,.2,0,.2,.1,.3,.1,.4-.1,.4-.3,.6-.6,.6h0Z"></path><path class="cls-34" d="M357.4,189.1c-.2,0-.4-.1-.5-.4,0-.1,0-.2-.1-.2-.1-.3,.1-.5,.3-.6,.3-.1,.5,.1,.6,.3,0,.1,.1,.2,.1,.3,.1,.3-.1,.6-.3,.6h-.1Z"></path><path class="cls-34" d="M357,187.9c-.2,0-.4-.1-.5-.3s-.2-.3-.2-.5c-.1-.2,0-.5,.2-.7,.2-.1,.5,0,.7,.2l.3,.6c.1,.3,0,.5-.3,.7h-.2Z"></path><path class="cls-34" d="M356.2,186.5c-.1,0-.3-.1-.4-.2-.1-.1-.1-.2-.2-.3-.2-.2-.1-.5,.1-.7s.5-.1,.7,.1c.1,.1,.1,.2,.2,.2,.2,.2,.1,.6-.1,.7-.1,.2-.2,.2-.3,.2Z"></path><path class="cls-34" d="M355.6,185.7c-.1,0-.3-.1-.4-.2-.1-.1-.1-.2-.2-.2-.2-.2-.2-.5,0-.7s.5-.2,.7,0c.1,.1,.2,.2,.2,.3,.2,.2,.1,.5-.1,.7,0,0-.1,.1-.2,.1Z"></path><path class="cls-34" d="M355.1,185.1c-.1,0-.3-.1-.4-.2l-.4-.4c-.2-.2-.2-.5,0-.7s.5-.2,.7,0l.5,.5c.2,.2,.2,.5,0,.7-.2,0-.3,.1-.4,.1Z"></path><path class="cls-34" d="M313.8,191.2c-.3,0-.5-.2-.5-.5,0-2.2,.9-6.3,7-9.7l1.2-.6c.8-.4,1.7-.7,2.6-1,.9-.4,1.9-.7,2.8-1.1,2.6-1.1,3.7-2.3,3.7-3.6v-3.1c0-.3,.2-.5,.5-.5s.5,.2,.5,.5v3.2c0,2.3-2.3,3.6-4.3,4.5-.9,.4-1.9,.8-2.8,1.1s-1.7,.7-2.5,1c-.4,.2-.8,.4-1.1,.6-5.6,3.1-6.5,6.8-6.5,8.8-.1,.1-.4,.4-.6,.4Z"></path><path class="cls-34" d="M357.7,191.2c-.3,0-.5-.2-.5-.5v-.6c0-.1,0-.3-.1-.5l-.1-.3v-.2c0-.1,0-.2-.1-.3l-.1-.3c-.1-.2-.2-.5-.3-.8-.1-.2-.1-.3-.2-.5-.1-.3-.3-.5-.5-.8-.1-.1-.1-.2-.2-.3-.1-.2-.3-.4-.4-.6-.1-.1-.1-.2-.2-.2l-.3-.3c-.1-.2-.3-.3-.4-.4-.5-.5-1-.9-1.6-1.3-.6-.4-1.2-.8-2-1.3-.1-.1-.2-.1-.3-.1-.2-.1-.4-.4-.2-.7,.1-.3,.4-.4,.7-.2,.1,.1,.2,.1,.3,.2,.8,.4,1.5,.9,2.1,1.3,.6,.5,1.2,.9,1.7,1.4,.2,.1,.3,.3,.5,.5l.3,.3c.1,.1,.2,.2,.2,.3,.2,.2,.3,.4,.5,.6,.1,.1,.1,.2,.2,.3,.2,.3,.4,.6,.5,.9l.3,.6c.1,.3,.3,.6,.3,.9l.1,.3c0,.1,.1,.2,.1,.3v.2c0,.1,0,.2,.1,.3,.1,.3,.1,.5,.1,.7v.7c0,.1-.2,.4-.5,.4Z"></path><path class="cls-34" d="M340.4,190.4c-.1,0-.2,0-.3-.1-.1-.1-.2-.2-.2-.4v-14.9c0-.3,.2-.5,.5-.5s.5,.2,.5,.5v14.3c4-1,7.1-3.2,9.2-6.6v-1.4c.2-10.6-.5-29.3-6.4-35.4-1.2-1.2-2.5-1.8-4.1-1.8-3,0-4.3,1.4-4.3,1.4-.2,.2-.5,.2-.7,0,0,0-.8-.7-2.3-.7-3.1,0-7.4,3.9-9.3,14.9-1,5.7-1.3,12.7-.8,21.1,0,.3-.2,.5-.5,.5s-.5-.2-.5-.5c-.5-8.4-.2-15.6,.9-21.3,2-11.6,6.8-15.7,10.3-15.7,1.2,0,2.1,.4,2.6,.7,.6-.5,2.1-1.4,4.7-1.4,1.8,0,3.4,.7,4.8,2.1,6.2,6.3,6.9,25.3,6.7,36.1v1.5c0,.1,0,.2-.1,.3-2.4,3.9-5.9,6.3-10.5,7.3h-.2Z"></path><path class="cls-34" d="M335.7,182.5c-3.3,0-6.5-1.2-9.1-3.4-.2-.2-.2-.5,0-.7s.5-.2,.7,0c2.3,2,5.3,3.2,8.4,3.2,.4,0,.9,0,1.4-.1,.3,0,.5,.2,.5,.4,0,.3-.2,.5-.4,.5-.6,.1-1,.1-1.5,.1Z"></path></g></g></g><g class="cls-43"><g><g><path class="cls-9" d="M264.5,130.5c6.8,1.6,6.7,5.7,6.7,10h-47.1c0-4.3,0-8.4,6.7-10,1.6-.4,3.6-1,5.5-1.8l.1,.2c2.8,3.3,6.9,5.3,11.2,5.3s8.4-2,11.2-5.3l.1-.2c2,.9,4,1.4,5.6,1.8Z"></path><path class="cls-7" d="M257.9,98.2c1.1,1.4,1.6,3.9,1.6,5.6,0,1.5,0,3.3-.6,4.8-.1-.2-.2-.2-.2-.2-2.5,0-2.1-5.7-6.8-5.7-1.7,0-6.5,1.7-9.7-1.4-1.6,3.8-3.3,6-5.5,7.1l-.2,.2c-.6-1.5-.6-1.9-.6-5.7,0-3.1,2-5.5,3.9-6.3,1.2-1.8,3.1-3.1,7.8-3.1,1.9,0,3.8,.3,5.4,1.1h0c2.9,.8,5.5,.5,5.5,.5,0,0,.6,1.7-.6,3.1Z"></path><path class="cls-29" d="M258.9,108.6c.2,.3,.6,.9,.6,2.1,0,3.5-2.5,3.7-2.5,3.7-.4,2.2-1.3,4.4-3,6-.5,.5-1,.9-1.6,1.2-1.2,.7-1.7,1.6-4.7,1.6s-3.5-.9-4.7-1.6c-.6-.3-1.1-.7-1.6-1.2-1.6-1.6-2.5-3.8-3-6,0,0-2.5-.2-2.5-3.7,0-1.2,.3-1.8,.6-2.1,.1-.2,.2-.2,.2-.2,2.2-1,3.9-3.3,5.5-7.1,3.2,3.1,8,1.4,9.7,1.4,4.7,0,4.3,5.7,6.8,5.7,0,0,.1,0,.2,.2Z"></path><path class="cls-29" d="M259,128.8l-.1,.2c-2.8,3.3-6.9,5.3-11.2,5.3s-8.4-2-11.2-5.3l-.1-.2c2.7-1.2,5-2.8,5-5v-3.2c.5,.5,1,.9,1.6,1.2,1.2,.7,1.7,1.6,4.7,1.6s3.5-.9,4.7-1.6c.6-.3,1.1-.7,1.6-1.2v3.2c0,2.1,2.3,3.8,5,5Z"></path></g><g><path class="cls-34" d="M247.7,123.8c-2.6,0-3.5-.6-4.3-1.2-.2-.1-.4-.3-.7-.4-.6-.3-1.2-.8-1.7-1.3-1.5-1.4-2.5-3.4-3.1-6-.8-.2-2.6-1.1-2.6-4.2,0-1.3,.4-2,.7-2.4l.3-.3c.2-.2,.5-.1,.7,.1,.2,.2,.1,.5-.1,.7h0l-.1,.1c-.2,.2-.5,.8-.5,1.8,0,3,2,3.2,2,3.3,.2,0,.4,.2,.4,.4,.5,2.5,1.5,4.4,2.8,5.8,.5,.4,.9,.8,1.5,1.1,.3,.2,.5,.3,.7,.5,.8,.6,1.5,1,3.7,1s2.9-.5,3.7-1c.2-.2,.5-.3,.7-.5,.5-.3,1-.7,1.5-1.1,1.4-1.4,2.4-3.3,2.8-5.8,0-.2,.2-.4,.4-.4,.1,0,2-.3,2-3.3,0-1.1-.3-1.6-.5-1.8l-.1-.1c-.2-.2-.3-.5-.1-.7,.2-.2,.5-.3,.7-.1,0,0,.2,.1,.3,.3,.3,.4,.7,1.1,.7,2.4,0,3.1-1.8,3.9-2.6,4.2-.6,2.5-1.6,4.5-3.1,6-.5,.5-1.1,.9-1.7,1.3-.2,.1-.4,.3-.7,.4-.2,.6-1.1,1.2-3.7,1.2Z"></path><path class="cls-34" d="M236.7,108.9c-.2,0-.4-.1-.5-.3-.1-.3,0-.5,.2-.7,2.1-1,3.7-3.1,5.2-6.8,.1-.2,.2-.3,.4-.3s.3,0,.4,.1c2.4,2.2,5.7,1.7,7.9,1.4,.6-.1,1.1-.2,1.5-.2,3,0,4.2,2.2,5,3.8,.6,1.2,1.1,1.9,1.8,1.9,.3,0,.5,.2,.5,.5s-.2,.5-.5,.5c-1.4,0-2-1.2-2.7-2.5-.8-1.6-1.7-3.2-4.1-3.2-.3,0-.8,.1-1.4,.2-2.1,.3-5.5,.8-8.2-1.2-1.6,3.6-3.3,5.7-5.5,6.7,.2,.1,.1,.1,0,.1Z"></path><path class="cls-34" d="M271.3,141c-.3,0-.5-.2-.5-.5h0c0-4.3,0-7.9-6.4-9.5-2.1-.5-4-1.1-5.6-1.8-3.5-1.5-5.3-3.4-5.3-5.5v-3.2c0-.3,.2-.5,.5-.5s.5,.2,.5,.5v3.2c0,2.1,2.6,3.6,4.7,4.6,1.5,.7,3.3,1.2,5.4,1.7,7.1,1.7,7.1,6.2,7.1,10.4,.1,.4-.2,.6-.4,.6Z"></path><path class="cls-34" d="M224.2,140.5h-.5c0-4.3,0-8.8,7.1-10.5,2.1-.5,3.9-1.1,5.4-1.7,2.2-.9,4.7-2.5,4.7-4.6v-3.2c0-.3,.2-.5,.5-.5s.5,.2,.5,.5v3.2c0,2.1-1.8,4-5.3,5.5-1.6,.7-3.4,1.3-5.6,1.8-6.4,1.5-6.4,5.2-6.4,9.5h-.4Z"></path><path class="cls-34" d="M247.7,134.8c-4.4,0-8.6-2-11.6-5.4-.2-.2-.2-.5,.1-.7,.2-.2,.5-.2,.7,.1,2.8,3.2,6.7,5.1,10.8,5.1s8-1.9,10.8-5.1c.2-.2,.5-.2,.7-.1,.2,.2,.2,.5,.1,.7-3,3.4-7.2,5.4-11.6,5.4Z"></path><path class="cls-34" d="M258.9,109.1h-.2c-.3-.1-.4-.4-.3-.6,.5-1.4,.5-3.1,.5-4.6,0-1.7-.5-4-1.5-5.3-.1-.2-.1-.4,0-.6,.7-.8,.7-1.7,.7-2.3-.9,0-2.9,.1-5.2-.6h-.1c-1.5-.7-3.4-1-5.2-1-4.8,0-6.4,1.4-7.4,2.9l-.2,.2c-1.8,.7-3.6,2.9-3.6,5.8,0,3.8,0,4.1,.5,5.5,.1,.3,0,.5-.3,.6s-.5,0-.6-.3c-.6-1.6-.6-2.1-.6-5.9,0-3.2,2-5.8,4.1-6.7,1.2-1.7,3-3.2,8.2-3.2,2,0,3.9,.4,5.6,1.1h0c2.8,.8,5.3,.5,5.3,.5,.3,0,.5,.1,.5,.4,0,.1,.4,1.8-.7,3.3,1,1.5,1.5,3.9,1.5,5.6,0,1.6,0,3.4-.6,5,0,.1-.2,.2-.4,.2Z"></path></g></g></g></g><g id="hexagons"><rect class="cls-39" x="188.6" y="212.1" width="55.6" height="1"></rect><rect class="cls-36" x="104.5" y="263" width="25.6" height=".9"></rect><polygon class="cls-36" points="350.8 238.3 350 237.8 364.5 212.6 350 187.4 350.8 186.9 365.7 212.6 350.8 238.3"></polygon><polygon class="cls-36" points="174.6 136.5 173.7 136 188.6 110.3 218.2 110.3 218.2 111.3 189.1 111.3 174.6 136.5"></polygon><polygon class="cls-36" points="174.6 238.3 173.7 237.8 188.3 212.6 173.7 187.4 174.6 186.9 189.4 212.6 174.6 238.3"></polygon><polygon class="cls-36" points="218.2 314.9 188.6 314.9 173.7 289.2 174.6 288.7 189.1 313.9 218.2 313.9 218.2 314.9"></polygon><polygon class="cls-36" points="306.4 162.4 276.8 162.4 276.6 162.1 261.9 136.7 262.8 136.2 277.3 161.4 306.4 161.4 306.4 162.4"></polygon><polygon class="cls-36" points="262.6 289.5 261.7 289 276.6 263.3 306.2 263.3 306.2 264.3 277.2 264.3 262.6 289.5"></polygon><rect class="cls-39" x="365.1" y="212.1" width="29.4" height="1"></rect><path class="cls-36" d="M174.5,289.4h-30l-15-25.9,15-25.9h30l15,25.9-15,25.9Zm-29.4-1h28.8l14.4-24.9-14.4-24.9h-28.8l-14.4,24.9,14.4,24.9Z"></path><path class="cls-36" d="M350.7,188h-30l-.1-.2-14.8-25.7,15-25.9h30l.1,.2,14.8,25.7-15,25.9Zm-29.4-1h28.8l14.4-24.9-14.4-24.9h-28.8l-14.4,24.9,14.4,24.9Z"></path><path class="cls-36" d="M350.6,289.8h-30l-.1-.2-14.8-25.7,15-25.9h30l.1,.2,14.8,25.7-15,25.9Zm-29.4-1h28.8l14.4-24.9-14.4-24.9h-28.8l-14.4,24.9,14.4,24.9Z"></path><path class="cls-36" d="M262.7,136.9h-30l-15-25.9,15-25.9h30l.1,.2,14.8,25.7-14.9,25.9Zm-29.4-1h28.8l14.4-24.9-14.4-24.9h-28.8l-14.4,24.9,14.4,24.9Z"></path><g><circle class="cls-32" cx="188.9" cy="212.6" r="2.6"></circle><path class="cls-29" d="M188.9,210c1.4,0,2.6,1.2,2.6,2.6s-1.2,2.6-2.6,2.6-2.6-1.2-2.6-2.6,1.1-2.6,2.6-2.6m0-1c-2,0-3.6,1.6-3.6,3.6s1.6,3.6,3.6,3.6,3.6-1.6,3.6-3.6-1.6-3.6-3.6-3.6h0Z"></path></g><g><circle class="cls-32" cx="365.1" cy="212.6" r="2.6"></circle><path class="cls-29" d="M365.1,210c1.4,0,2.6,1.2,2.6,2.6s-1.2,2.6-2.6,2.6-2.6-1.2-2.6-2.6,1.2-2.6,2.6-2.6m0-1c-2,0-3.6,1.6-3.6,3.6s1.6,3.6,3.6,3.6,3.6-1.6,3.6-3.6-1.6-3.6-3.6-3.6h0Z"></path></g><polygon class="cls-36" points="86.5 187.4 85.6 186.9 100.4 161.2 130.1 161.2 130.1 162.2 101 162.2 86.5 187.4"></polygon><path class="cls-36" d="M174.5,187.7h-30l-15-25.9,15-25.9h30l15,25.9-15,25.9Zm-29.4-1h28.8l14.4-24.9-14.4-24.9h-28.8l-14.4,24.9,14.4,24.9Z"></path><polygon class="cls-41" points="306.2 366.1 276.6 366.1 276.4 365.9 261.7 340.4 262.6 339.9 277.2 365.1 306.2 365.1 306.2 366.1"></polygon><rect class="cls-18" x="365.3" y="365.1" width="145.5" height="1"></rect><polygon class="cls-41" points="350.6 391.5 320.6 391.5 320.5 391.3 305.8 365.9 306.7 365.4 321.2 390.5 350 390.5 364.6 365.4 365.4 365.9 350.6 391.5"></polygon><polygon class="cls-18" points="394.7 417 364.7 417 364.6 416.7 349.7 391 364.6 365.4 365.4 365.9 350.9 391 365.3 416 394.1 416 408.6 390.8 409.5 391.3 394.7 417"></polygon><polygon class="cls-41" points="218.4 416.9 188.4 416.9 173.4 391 188.3 365.3 189.1 365.8 174.6 391 189 415.9 217.8 415.9 232.2 391 217.7 365.8 218.5 365.3 233.4 391 218.4 416.9"></polygon><polygon class="cls-41" points="262.4 391.5 232.5 391.5 217.5 365.6 232.3 339.9 233.2 340.4 218.7 365.6 233.1 390.5 261.9 390.5 276.3 365.6 261.7 340.4 262.6 339.9 277.4 365.6 262.4 391.5"></polygon><polygon class="cls-18" points="394.8 416.7 394 416.2 408.8 390.5 497.2 390.5 497.2 391.5 409.4 391.5 394.8 416.7"></polygon><polygon class="cls-18" points="500.5 409.9 499.6 409.4 510.3 391 499.6 372.7 500.5 372.2 511.4 391 500.5 409.9"></polygon><polygon class="cls-18" points="511.3 416.7 510.4 416.2 524.9 391 510.4 365.9 511.3 365.4 526.1 391 511.3 416.7"></polygon><polygon class="cls-18" points="491.9 402.2 491 401.7 497.1 391 491 380.4 491.9 379.9 498.3 391 491.9 402.2"></polygon><path class="cls-41" d="M174.3,391.5h-30l-15-25.9,15-25.9h30l15,25.9-15,25.9Zm-29.4-1h28.8l14.4-24.9-14.4-25h-28.8l-14.4,25,14.4,24.9Z"></path><path class="cls-36" d="M262.4,340.6h-30l-15-25.9,15-25.9h30l.1,.2,14.8,25.7-14.9,25.9Zm-29.3-1h28.8l14.4-24.9-14.4-24.9h-28.8l-14.4,24.9,14.4,24.9Z"></path><g><circle class="cls-18" cx="350.3" cy="391" r="2.6"></circle><path class="cls-29" d="M350.3,388.4c1.4,0,2.6,1.2,2.6,2.6s-1.2,2.6-2.6,2.6-2.6-1.2-2.6-2.6,1.2-2.6,2.6-2.6m0-1c-2,0-3.6,1.6-3.6,3.6s1.6,3.6,3.6,3.6,3.6-1.6,3.6-3.6-1.6-3.6-3.6-3.6h0Z"></path></g></g><g id="globe_cut"><path class="cls-28" d="M279.2,180.8c-8.5-8.5-19.8-13.2-31.8-13.2s-23.3,4.7-31.8,13.2c-2.6,2.6-4.8,5.4-6.7,8.5,.4,.1,.7,.4,.9,.6,1.8-3,4-5.8,6.5-8.3,6.7-6.7,15.2-11,24.6-12.4l2.9-.4-2.5,1.5c-4.7,2.9-8.8,7.4-11.9,13.1-.9,1.6-1.6,3.3-2.3,5.1l-.1,.3h-.4c-5.6,.6-10.8,1.4-15.7,2.5,.1,.3,.2,.7,.2,1.1,4.6-1,9.4-1.7,14.5-2.3l.9-.1-.3,.9c-2.1,6.1-3.2,13-3.3,20.5v.6h1.1v-.6c.1-7.8,1.3-14.9,3.6-21.2l.1-.4h.4c5.8-.6,11.9-.9,18.1-.9h.6v20.1c.2,0,.4-.1,.7-.1h.4v-20.1h.6c6.1,0,12.2,.3,18.1,.9h.4l.1,.4c2.3,6.3,3.5,13.4,3.6,21.2v.6h-19.6c0,.2,.1,.4,.1,.5,0,.2,0,.4-.1,.5h19.6v.6c-.1,7.8-1.3,14.9-3.6,21.2l-.1,.4h-.4c-5.8,.6-11.9,.9-18.1,.9h-.6v-20.1h-.4c-.2,0-.5,0-.7-.1v20.1h-.6c-5.1,0-10.2-.3-15.1-.7v.2c0,.3-.1,.6-.1,.9,5,.4,10.1,.6,15.2,.7h.6v18.9l-.8-.3c-6.3-2.4-11.7-7.5-15.6-14.7-.4-.8-.8-1.5-1.2-2.3-.3,.2-.7,.3-1,.4,.4,.8,.8,1.7,1.2,2.5,3.1,5.7,7.2,10.2,11.9,13.1l2.5,1.5c.4,.2,2.8,1.1,3.5,1.1,12,0,23.3-4.7,31.8-13.2s13.2-19.8,13.2-31.8c.1-11.6-4.6-22.9-13.1-31.4Zm-32.3,7.1h-.6c-5.8,0-11.5,.3-17,.8l-1,.1,.4-.9c.6-1.3,1.2-2.6,1.8-3.9,3.9-7.2,9.3-12.3,15.6-14.7l.8-.3v18.9h0Zm18.7,.8c-5.5-.5-11.3-.8-17-.8h-.6v-18.9l.8,.3c6.3,2.4,11.7,7.5,15.6,14.7,.7,1.2,1.3,2.5,1.8,3.9l.4,.9-1-.1Zm2.1-.1c-.7-1.8-1.5-3.5-2.3-5.1-3.1-5.7-7.2-10.2-11.9-13.1l-2.5-1.5,2.9,.4c9.4,1.4,17.9,5.6,24.6,12.4,2.7,2.7,5.1,5.8,7,9.1l.7,1.2-1.3-.3c-5.2-1.1-10.7-2-16.5-2.6h-.4l-.3-.5Zm.9,2.3l-.3-.9,.9,.1c6.1,.7,11.9,1.7,17.2,2.9l.3,.1,.1,.3c2.8,5.7,4.2,11.7,4.4,18v.6h-19.4v-.6c0-7.4-1.1-14.3-3.2-20.5Zm-20.6,65.3v-18.9h.6c5.8,0,11.5-.3,17-.8l1-.1-.4,.9c-.6,1.3-1.2,2.6-1.8,3.9-3.9,7.2-9.3,12.3-15.6,14.7l-.8,.3Zm37.4-21.7c-1.9,3.3-4.3,6.4-7,9.1-6.7,6.7-15.2,11-24.6,12.4l-2.9,.4,2.5-1.5c4.7-2.9,8.8-7.4,11.9-13.1,.9-1.6,1.7-3.3,2.3-5.1l.1-.3h.4c5.8-.6,11.3-1.5,16.5-2.6l1.3-.3-.5,1Zm5.9-20.7c-.2,6.3-1.6,12.4-4.4,18l-.1,.3-.3,.1c-5.4,1.2-11.2,2.2-17.2,2.9l-.9,.1,.3-.9c2.1-6.1,3.2-13,3.3-20.5v-.6h19.4l-.1,.6Z"></path><circle class="cls-32" cx="207.6" cy="192.7" r="2.6"></circle><circle class="cls-32" cx="247.6" cy="212.6" r="2.6"></circle><circle class="cls-32" cx="227.6" cy="235.7" r="2.6"></circle></g><g id="pie_chart"><g><g><path class="cls-27" d="M434.1,157.3c-8.4,2.8-16.3,7.6-23,14.3-21.8,22.1-22.3,57.4-1.6,80.1l21-21.3c-9-11.1-8.4-27.4,1.9-37.8,2.8-2.9,6.2-5,9.7-6.4l-8-28.9Z"></path><path class="cls-39" d="M409.5,252.3h0c-.1,0-.3-.1-.4-.2-21-23.1-20.3-58.6,1.6-80.8,6.6-6.7,14.4-11.5,23.2-14.5h.4c.1,0,.2,.2,.2,.3l8,28.9c.1,.2-.1,.5-.3,.6-3.6,1.4-6.8,3.6-9.5,6.3-10,10.1-10.8,26.1-1.8,37.1,.2,.2,.1,.5,0,.7l-21,21.3c-.2,.2-.3,.3-.4,.3Zm24.3-94.3c-8.5,2.9-16,7.6-22.3,14.1-21.4,21.7-22.3,56.3-2,79l20.4-20.6c-9-11.4-8.1-27.7,2.2-38.1,2.7-2.8,5.9-4.9,9.4-6.4l-7.7-28Z"></path></g><path class="cls-39" d="M496.2,251.7c-.1,0-.3-.1-.4-.1l-21.3-21c-.2-.2-.2-.5,0-.7,3.9-4.9,6-11.1,6-17.5,0-.3,.2-.5,.5-.5h0c.3,0,.5,.2,.5,.5,0,6.4-2,12.7-5.9,17.7l20.6,20.4c13.1-15.1,17.5-35.5,11.7-54.7-.1-.3,.1-.5,.3-.6,.3-.1,.5,.1,.6,.3,6,19.7,1.4,40.6-12.2,56-.1,.1-.2,.2-.4,.2h0Z"></path><path class="cls-39" d="M448.1,185.1c-.2,0-.4-.1-.5-.4l-8-28.9c0-.1,0-.3,.1-.4,.1-.1,.2-.2,.3-.2,6.8-1.5,13.7-1.7,20.6-.8,.3,0,.5,.3,.4,.6,0,.3-.3,.5-.6,.4-6.6-.9-13.2-.7-19.7,.7l7.7,27.9h.3c.3,0,.5,.2,.6,.4,0,.3-.2,.5-.4,.6-.2,0-.5,0-.8,.1,.1,0,0,0,0,0Z"></path><path class="cls-39" d="M452.5,271.3c-3.9,0-7.8-.4-11.6-1.2-.1,0-.3-.1-.3-.2-.1-.1-.1-.3-.1-.4l7.6-29c.1-.2,.3-.4,.6-.4,7.7,1.1,15.5-1,21.6-5.9,.2-.2,.5-.1,.7,0l21.3,21c.1,.1,.2,.2,.1,.4,0,.1-.1,.3-.2,.4-11,10-25.2,15.3-39.7,15.3Zm-10.9-2c17.7,3.4,36.1-1.7,49.5-13.6l-20.6-20.4c-6.1,4.8-13.9,6.9-21.5,5.9l-7.4,28.1Z"></path><path class="cls-39" d="M434.9,268.6h-.2c-7.8-2.5-14.9-6.5-21.1-12-.1-.1-.2-.2-.2-.4,0-.1,0-.3,.1-.4l21-21.3c.2-.2,.5-.2,.7,0,2.2,1.7,4.7,3.1,7.3,4.1,.2,.1,.4,.3,.3,.6l-7.6,29c0,.1-.1,.2-.2,.3,0,.1-.1,.1-.1,.1Zm-20.2-12.4c5.8,5.1,12.5,8.9,19.8,11.3l7.3-28.1c-2.4-1-4.7-2.3-6.8-3.8l-20.3,20.6Z"></path></g></g><g id="Clouds"><g><g><path class="cls-40" d="M190.5,69.7h-8.2c-.3,0-.5-.2-.5-.5s.2-.5,.5-.5h7.7v-7.7c0-.3,.2-.5,.5-.5s.5,.2,.5,.5v8.2c0,.2-.2,.5-.5,.5Z"></path><path class="cls-40" d="M163.4,88.7c-.3,0-.5-.2-.5-.5v-8.2c0-.3,.2-.5,.5-.5h8.2c.3,0,.5,.2,.5,.5s-.2,.5-.5,.5h-7.7v7.7c0,.3-.3,.5-.5,.5Z"></path><path class="cls-40" d="M163.4,75.1h-15.1v-1h14.6v-.7c.7-7.3,6.7-12.9,14.1-12.9,5.5,0,10.6,3.2,12.9,8.2l-.9,.4c-2.1-4.6-6.8-7.6-12-7.6-6.8,0-12.5,5.1-13.1,11.9v1.2c0,.3-.3,.5-.5,.5Z"></path><path class="cls-40" d="M176.9,88.7c-5.5,0-10.6-3.2-12.9-8.2l.9-.4c2.1,4.6,6.8,7.6,12,7.6,6.8,0,12.5-5.1,13.1-11.9v-1.2c0-.3,.2-.5,.5-.5h6.8c5,0,9-4,9-9,0-3.7-2.3-7-5.7-8.4-.3-.1-.4-.4-.3-.6,.4-1,.6-2.1,.6-3.2,0-5-4-9-9-9-.4,0-.8,0-1.3,.1-.1,0-.3,0-.4-.1-.1-.1-.2-.2-.2-.3-.6-6.8-6.2-11.9-13-11.9s-12.9,5.6-13.1,12.7c0,.2-.1,.4-.3,.4-.2,.1-.4,.1-.5-.1-3.4-2.8-8.2-2.4-11.4-.6-3.3,1.8-5.1,4.8-4.8,8,0,.2-.1,.3-.2,.4-.1,.1-.3,.1-.5,.1-.1,0-8.3-2.8-15.3,3.4l-.7-.7c6.2-5.6,13.3-4.4,15.6-3.8-.1-3.3,1.9-6.4,5.3-8.3,3.2-1.8,8-2.3,11.7,.2,.7-7.2,6.7-12.7,14-12.7s13.1,5.2,14,12.3c.3,0,.7-.1,1-.1,5.5,0,10,4.5,10,10,0,1-.2,2.1-.5,3.1,3.6,1.6,5.9,5.1,5.9,9.1,0,5.5-4.5,10-10,10h-6.3v.7c-.5,7.4-6.6,12.9-14,12.9Z"></path></g><g><path class="cls-18" d="M142.8,106.3h-5.5v-1h5.5c6.8,0,12.3-5.5,12.3-12.3,0-5.1-3.1-9.6-7.9-11.5-.3-.1-.4-.4-.3-.6,.5-1.4,.8-2.9,.8-4.4,0-6.8-5.5-12.3-12.3-12.3-.6,0-1.1,0-1.8,.2-.1,0-.3,0-.4-.1-.1-.1-.2-.2-.2-.3-.8-9.4-8.4-16.4-17.7-16.4s-17.5,7.6-17.8,17.3c0,.2-.1,.3-.2,.4s-.3,.1-.5,0c-1.7-.8-3.5-1.2-5.3-1.2-6.8,0-12.3,5.5-12.3,12.3,0,1.2,.2,2.4,.5,3.6,0,.1,0,.3-.1,.4s-.2,.2-.4,.2c-6.3,.6-11.1,5.9-11.1,12.3,0,6.8,5.5,12.3,12.3,12.3h12.8v1h-12.8c-7.4,0-13.3-6-13.3-13.3,0-6.7,4.9-12.3,11.4-13.2-.3-1.1-.4-2.2-.4-3.3,0-7.4,6-13.3,13.3-13.3,1.7,0,3.4,.3,5.1,1,.7-9.9,8.8-17.5,18.8-17.5s17.6,7.1,18.7,16.6c.5-.1,1-.1,1.5-.1,7.4,0,13.3,6,13.3,13.3,0,1.4-.2,2.9-.7,4.3,4.9,2.1,8.1,6.9,8.1,12.2-.1,7.4-6,13.4-13.4,13.4Z"></path><path class="cls-18" d="M131.8,121h-33c-.3,0-.5-.2-.5-.5v-40.4c0-.3,.2-.5,.5-.5h22c.1,0,.3,.1,.4,.1l11,11c.1,.1,.1,.2,.1,.4v29.4c0,.3-.2,.5-.5,.5Zm-32.5-1h32v-28.6l-10.7-10.8h-21.3v39.4Z"></path><rect class="cls-18" x="106.1" y="98" width="18.3" height="1"></rect><rect class="cls-18" x="106.1" y="105.3" width="18.3" height="1"></rect><path class="cls-18" d="M131.8,91.6h-11c-.3,0-.5-.2-.5-.5v-11h1v10.5h10.5v1Z"></path></g></g><g><path class="cls-23" d="M94.3,25.4h-2.3v-1h2.3c2.7,0,4.9-2.2,4.9-4.8,0-2-1.2-3.8-3.1-4.5-.3-.1-.4-.4-.3-.6,.2-.6,.3-1.1,.3-1.7,0-2.7-2.2-4.9-4.9-4.9-.2,0-.5,0-.7,.1-.1,0-.3,0-.4-.1-.1-.1-.2-.2-.2-.3-.3-3.7-3.4-6.5-7.1-6.5-3.9,0-7,3-7.1,6.9,0,.2-.1,.3-.2,.4-.1,.1-.3,.1-.5,0-.7-.3-1.4-.5-2.1-.5-2.7,0-4.9,2.2-4.9,4.9,0,.5,.1,1,.2,1.4,0,.1,0,.3-.1,.4-.1,.1-.2,.2-.4,.2-2.5,.2-4.4,2.3-4.4,4.8,0,2.7,2.2,4.8,4.9,4.8h5.4v1h-5.4c-3.2,0-5.9-2.6-5.9-5.8,0-2.8,2-5.2,4.7-5.7-.1-.4-.1-.8-.1-1.1,0-3.2,2.6-5.9,5.9-5.9,.6,0,1.3,.1,1.9,.3,.5-4.1,3.9-7.2,8.1-7.2s7.4,2.9,8,6.9h.4c3.2,0,5.9,2.6,5.9,5.9,0,.5-.1,1.1-.2,1.6,2,1,3.3,3,3.3,5.3-.1,3.1-2.7,5.7-5.9,5.7Z"></path><path class="cls-18" d="M87.7,31.5h-9.8c-1.4,0-2.5-1.1-2.5-2.5v-5.2c0-1.4,1.1-2.5,2.5-2.5h9.8c1.4,0,2.5,1.1,2.5,2.5v5.2c0,1.4-1.1,2.5-2.5,2.5Zm-9.8-9.2c-.8,0-1.5,.7-1.5,1.5v5.2c0,.8,.7,1.5,1.5,1.5h9.8c.8,0,1.5-.7,1.5-1.5v-5.2c0-.8-.7-1.5-1.5-1.5h-9.8Z"></path><path class="cls-18" d="M88.7,21.8h-1v-3.1c0-2.7-2.2-4.9-4.8-4.9s-4.9,2.2-4.9,4.9v3.1h-1v-3.1c0-3.2,2.6-5.9,5.9-5.9s5.8,2.6,5.8,5.9v3.1Z"></path></g><g><g><path class="cls-36" d="M72.3,208.5c-.2,0-.4-.1-.5-.4l-2.1-7.7c-.1-.2,0-.4,.2-.5s.4-.1,.6,0l3.2,1.9,15-25.9c.1-.2,.4-.3,.7-.2,.2,.1,.3,.4,.2,.7l-15.3,26.2c-.1,.2-.4,.3-.7,.2l-2.6-1.5,1.6,6.1,6.1-1.6-2.6-1.5c-.2-.1-.3-.4-.2-.7l9.6-16.7c.1-.2,.4-.3,.7-.2,.2,.1,.3,.4,.2,.7l-9.4,16.2,3.2,1.9c.2,.1,.3,.3,.2,.5,0,.2-.2,.4-.4,.4l-7.7,2.1c.1,0,0,0,0,0Z"></path><g><path class="cls-36" d="M90.4,174.3c-.1,0-.2,0-.2-.1-.2-.1-.3-.4-.2-.7l.7-1.2c.1-.2,.4-.3,.7-.2,.2,.1,.3,.4,.2,.7l-.7,1.2c-.2,.2-.3,.3-.5,.3Z"></path><path class="cls-36" d="M92.3,170.9c-.1,0-.2,0-.2-.1-.2-.1-.3-.4-.2-.7l1.2-2.1c.1-.2,.4-.3,.7-.2,.2,.1,.3,.4,.2,.7l-1.2,2.1c-.1,.3-.3,.3-.5,.3Zm2.5-4.2c-.1,0-.2,0-.2-.1-.2-.1-.3-.4-.2-.7l1.2-2.1c.1-.2,.4-.3,.7-.2,.2,.1,.3,.4,.2,.7l-1.2,2.1c-.2,.2-.4,.3-.5,.3Zm2.4-4.2c-.1,0-.2,0-.2-.1-.2-.1-.3-.4-.2-.7l1.2-2.1c.1-.2,.4-.3,.7-.2,.2,.1,.3,.4,.2,.7l-1.2,2.1c-.2,.2-.3,.3-.5,.3Z"></path><path class="cls-36" d="M99.6,158.3c-.1,0-.2,0-.2-.1-.2-.1-.3-.4-.2-.7l.7-1.2c.1-.2,.4-.3,.7-.2,.2,.1,.3,.4,.2,.7l-.7,1.2c-.1,.2-.3,.3-.5,.3Z"></path></g></g><g><path class="cls-23" d="M95.7,159.4c-.1,0-.2,0-.2-.1-.2-.1-.3-.4-.2-.7l15.2-26.4c.1-.1,.2-.2,.3-.2h.4l2.6,1.5-1.6-6.1-6.1,1.6,2.6,1.5c.2,.1,.3,.4,.2,.7l-9.6,16.7c-.1,.2-.4,.3-.7,.2-.2-.1-.3-.4-.2-.7l9.4-16.2-3.2-1.9c-.2-.1-.3-.3-.2-.5,0-.2,.2-.4,.4-.4l7.7-2.1h.4c.1,.1,.2,.2,.2,.3l2.1,7.7c.1,.2,0,.4-.2,.5s-.4,.1-.6,0l-3.2-1.9-15,25.9c-.1,.5-.3,.6-.5,.6Z"></path><g><path class="cls-23" d="M93.8,162.8c-.1,0-.2,0-.2-.1-.2-.1-.3-.4-.2-.7l.7-1.2c.1-.2,.4-.3,.7-.2,.2,.1,.3,.4,.2,.7l-.7,1.2c-.2,.2-.4,.3-.5,.3Z"></path><path class="cls-23" d="M86.4,175.5c-.1,0-.2,0-.2-.1-.2-.1-.3-.4-.2-.7l1.2-2.1c.1-.2,.4-.3,.7-.2s.3,.4,.2,.7l-1.2,2.1c-.1,.2-.3,.3-.5,.3Zm2.5-4.2c-.1,0-.2,0-.2-.1-.2-.1-.3-.4-.2-.7l1.2-2.1c.1-.2,.4-.3,.7-.2,.2,.1,.3,.4,.2,.7l-1.2,2.1c-.2,.2-.3,.3-.5,.3Zm2.4-4.3c-.1,0-.2,0-.2-.1-.2-.1-.3-.4-.2-.7l1.2-2.1c.1-.2,.4-.3,.7-.2,.2,.1,.3,.4,.2,.7l-1.2,2.1c-.1,.2-.3,.3-.5,.3Z"></path><path class="cls-23" d="M84.5,178.8c-.1,0-.2,0-.2-.1-.2-.1-.3-.4-.2-.7l.7-1.2c.1-.2,.4-.3,.7-.2,.2,.1,.3,.4,.2,.7l-.7,1.2c-.1,.2-.3,.3-.5,.3Z"></path></g><g><path class="cls-23" d="M78.8,183c-.1,0-.2,0-.2-.1-.2-.1-.3-.4-.2-.7l.7-1.2c.1-.2,.4-.3,.7-.2,.2,.1,.3,.4,.2,.7l-.7,1.2c-.1,.2-.3,.3-.5,.3Z"></path><path class="cls-23" d="M80.9,179.5c-.1,0-.2,0-.2-.1-.2-.1-.3-.4-.2-.7l1.3-2.3c.1-.2,.4-.3,.7-.2,.2,.1,.3,.4,.2,.7l-1.3,2.3c-.2,.2-.4,.3-.5,.3Zm2.6-4.7c-.1,0-.2,0-.2-.1-.2-.1-.3-.4-.2-.7l1.3-2.3c.1-.2,.4-.3,.7-.2,.2,.1,.3,.4,.2,.7l-1.3,2.3c-.1,.2-.3,.3-.5,.3Zm2.7-4.6c-.1,0-.2,0-.2-.1-.2-.1-.3-.4-.2-.7l1.3-2.3c.1-.2,.4-.3,.7-.2,.2,.1,.3,.4,.2,.7l-1.3,2.3c-.1,.2-.3,.3-.5,.3Zm2.7-4.7c-.1,0-.2,0-.2-.1-.2-.1-.3-.4-.2-.7l1.3-2.3c.1-.2,.4-.3,.7-.2,.2,.1,.3,.4,.2,.7l-1.3,2.3c-.1,.2-.3,.3-.5,.3Zm2.7-4.6c-.1,0-.2,0-.2-.1-.2-.1-.3-.4-.2-.7l1.3-2.3c.1-.2,.4-.3,.7-.2,.2,.1,.3,.4,.2,.7l-1.3,2.3c-.2,.2-.3,.3-.5,.3Zm2.7-4.6c-.1,0-.2,0-.2-.1-.2-.1-.3-.4-.2-.7l1.3-2.3c.1-.2,.4-.3,.7-.2,.2,.1,.3,.4,.2,.7l-1.3,2.3c-.2,.2-.4,.3-.5,.3Z"></path><path class="cls-23" d="M97,151.6c-.1,0-.2,0-.2-.1-.2-.1-.3-.4-.2-.7l.7-1.2c.1-.2,.4-.3,.7-.2,.2,.1,.3,.4,.2,.7l-.7,1.2c-.2,.2-.4,.3-.5,.3Z"></path></g></g></g><g><path class="cls-40" d="M52.5,48.3v-1c4.5,0,8.2-3.7,8.2-8.2,0-3.4-2-6.4-5.2-7.6-.3-.1-.4-.4-.3-.6,.4-.9,.5-1.9,.5-2.9,0-4.5-3.7-8.2-8.2-8.2-.4,0-.8,0-1.2,.1-.1,0-.3,0-.4-.1s-.2-.2-.2-.3c-.5-6.2-5.6-10.9-11.8-10.9s-11.7,5.1-11.9,11.5c0,.2-.1,.3-.2,.4-.1,.1-.3,.1-.5,0-1.1-.5-2.3-.8-3.5-.8-4.5,0-8.2,3.7-8.2,8.2,0,.8,.1,1.6,.4,2.4,0,.1,0,.3-.1,.4-.1,.1-.2,.2-.4,.2-4.2,.4-7.4,3.9-7.4,8.1,0,4.5,3.7,8.2,8.2,8.2h6.8v1h-6.8c-5.1,0-9.2-4.1-9.2-9.2,0-4.5,3.3-8.3,7.7-9.1-.2-.7-.2-1.4-.2-2.1,0-5.1,4.1-9.2,9.2-9.2,1.1,0,2.2,.2,3.3,.6,.5-6.5,6-11.6,12.8-11.6s12,4.8,12.8,11.2h.9c5.1,0,9.2,4.1,9.2,9.2,0,.9-.1,1.9-.4,2.8,3.3,1.5,5.4,4.7,5.4,8.4-.1,5-4.2,9.1-9.3,9.1Z"></path><g><path class="cls-40" d="M34.6,62.9c-8.5,0-15.4-6.9-15.4-15.4s6.9-15.4,15.4-15.4,15.4,6.9,15.4,15.4-6.9,15.4-15.4,15.4Zm0-29.8c-7.9,0-14.4,6.5-14.4,14.4s6.5,14.4,14.4,14.4,14.4-6.5,14.4-14.4-6.4-14.4-14.4-14.4Z"></path><path class="cls-40" d="M34.6,41.8c-4.2,0-8.2-.8-12-2.5l.4-.9c3.7,1.6,7.6,2.4,11.7,2.4s8-.8,11.7-2.4l.4,.9c-3.9,1.7-8,2.5-12.2,2.5Z"></path><path class="cls-40" d="M46.3,56.7c-3.7-1.6-7.6-2.4-11.7-2.4s-8,.8-11.7,2.4l-.3-1c3.8-1.7,7.9-2.5,12-2.5s8.2,.8,12,2.5l-.3,1Z"></path><rect class="cls-40" x="19.8" y="47" width="29.8" height="1"></rect><rect class="cls-40" x="34.1" y="32.6" width="1" height="29.8"></rect><path class="cls-40" d="M34.6,62.9c-4.5,0-7.9-6.8-7.9-15.4s3.5-15.4,7.9-15.4,8,6.8,8,15.4-3.5,15.4-8,15.4Zm0-29.8c-3.8,0-6.9,6.6-6.9,14.4s3.2,14.4,6.9,14.4,7-6.6,7-14.4-3.2-14.4-7-14.4Z"></path></g></g><g><path class="cls-39" d="M75.5,186.1h-9.4c-.3,0-.5-.2-.5-.5v-7.2c-2.1-.5-4.1-1.3-5.9-2.5l-5.1,5.1c-.2,.2-.5,.2-.7,0l-6.6-6.6c-.2-.2-.2-.5,0-.7l5.1-5.1c-1.1-1.9-2-3.9-2.5-5.9h-7.2c-.3,0-.5-.2-.5-.5v-9.4c0-.3,.2-.5,.5-.5h7.2c.5-2.1,1.3-4.1,2.5-5.9l-5.1-5.1c-.2-.2-.2-.5,0-.7l6.6-6.6c.2-.2,.5-.2,.7,0l5.1,5.1c1.9-1.1,3.9-2,5.9-2.5v-7.2c0-.3,.2-.5,.5-.5h9.4c.3,0,.5,.2,.5,.5v7.2c2.1,.5,4.1,1.3,5.9,2.5l5.1-5.1c.2-.2,.5-.2,.7,0l6.6,6.6c.1,.1,.1,.2,.1,.4s-.1,.3-.1,.4l-5.1,5.1c1.2,2,2.1,4.1,2.6,6.3,.1,.3-.1,.5-.4,.6-.3,.1-.5-.1-.6-.4-.5-2.3-1.4-4.4-2.6-6.4-.1-.2-.1-.5,.1-.6l5-5-5.9-5.9-5,5c-.2,.2-.4,.2-.6,.1-2-1.2-4.1-2.1-6.4-2.6-.2-.1-.4-.3-.4-.5v-7.1h-8.4v7.1c0,.2-.2,.4-.4,.5-2.3,.5-4.4,1.4-6.4,2.6-.2,.1-.5,.1-.6-.1l-5-5-5.9,5.9,5,5c.2,.2,.2,.4,.1,.6-1.2,2-2.1,4.1-2.6,6.4-.1,.2-.3,.4-.5,.4h-7.1v8.4h7.1c.2,0,.4,.2,.5,.4,.5,2.3,1.4,4.4,2.6,6.4,.1,.2,.1,.5-.1,.6l-5,5,5.9,5.9,5-5c.2-.2,.4-.2,.6-.1,2,1.2,4.1,2.1,6.4,2.6,.2,.1,.4,.3,.4,.5v7.1h8.9c.3,0,.5,.2,.5,.5s-.2,.4-.5,.4Z"></path><path class="cls-39" d="M70.9,169.7c-6.7,0-12.2-5.5-12.2-12.2s5.5-12.2,12.2-12.2,12.2,5.5,12.2,12.2-5.5,12.2-12.2,12.2Zm0-23.4c-6.2,0-11.2,5-11.2,11.2s5,11.2,11.2,11.2,11.2-5,11.2-11.2-5.1-11.2-11.2-11.2Z"></path></g></g><g id="APP"><path class="cls-23" d="M95,315.2H6.2c-3.4,0-6.2-2.8-6.2-6.2v-89.9c0-3.4,2.8-6.2,6.2-6.2H95c3.4,0,6.2,2.8,6.2,6.2v89.9c0,3.4-2.7,6.2-6.2,6.2ZM6.2,213.9c-2.8,0-5.2,2.3-5.2,5.2v89.9c0,2.8,2.3,5.2,5.2,5.2H95c2.8,0,5.2-2.3,5.2-5.2v-89.9c0-2.8-2.3-5.2-5.2-5.2H6.2Z"></path><g><circle class="cls-6" cx="25.7" cy="252.6" r="15.7" transform="translate(-227.62 269.88) rotate(-88.09)"></circle><g><g><path class="cls-29" d="M44.5,271.4H6.9c0-1.9,1.7-5.8,6-8,1.3-.7,3.1-1.2,4.7-1.9,1,2.8,3,5.2,5.6,6.7l2.5-3.8,2.5,3.8c2.6-1.5,4.5-3.9,5.6-6.7,1.6,.7,3.4,1.2,4.7,1.9,4.3,2.2,6,6.1,6,8Z"></path><path class="cls-29" d="M33.9,245.7c-.9-3.6-4.4-4.4-4.4-4.4-.5,1.6,0,2.5,0,2.5-5,0-7.5-3.1-7.5-3.1-1,3.3-4.4,5-4.4,5l-.2,.2c-.2-.8-.4-1.7-.4-3.3,0-2.5,1.5-5,2.9-5.6,.9-1.4,2.3-3.1,5.8-3.1,4.8,0,8.8,2.8,8.8,8.3,0,1.2,0,2.6-.4,3.8-.2-.2-.2-.3-.2-.3Z"></path><path class="cls-29" d="M31.4,260.3c.6,.5,1.5,.9,2.3,1.3-1,2.8-3,5.2-5.6,6.7l-2.5-3.8c2.4-.7,4.4-2.2,5.8-4.2Z"></path><path class="cls-29" d="M25.7,264.5l-2.5,3.8c-2.6-1.5-4.5-3.9-5.6-6.7,.9-.4,1.7-.8,2.3-1.3,1.4,2,3.4,3.5,5.8,4.2Z"></path><path class="cls-29" d="M21.3,258h0v-2.3c1.3,1.3,2.8,1.9,4.4,1.9s3.1-.6,4.4-1.9v2.2h0c0,.9,.5,1.7,1.4,2.3-1.4,2-3.4,3.5-5.7,4.3-2.3-.8-4.3-2.2-5.7-4.3,.6-.6,1.2-1.3,1.2-2.2Z"></path><path class="cls-29" d="M34,245.9c.2,.2,.4,.8,.4,1.7,0,2.8-1.9,3-1.9,3-.4,2.3-1.3,4-2.5,5.1-1.3,1.3-2.8,1.9-4.4,1.9s-3.1-.6-4.4-1.9c-1.2-1.2-2.1-2.9-2.5-5.1,0,0-1.9-.2-1.9-3,0-.9,.3-1.5,.4-1.7l.2-.2s3.5-1.7,4.4-5c0,0,2.5,3.1,7.5,3.1,0,0-.5-.9,0-2.5,0,0,3.6,.8,4.4,4.4,.2,0,.2,.1,.3,.2Z"></path></g><g><path class="cls-18" d="M25.7,258.1c-1.7,0-3.4-.7-4.7-2-1.3-1.3-2.2-3-2.6-5.1-.8-.3-1.9-1.2-1.9-3.4,0-1,.3-1.7,.5-2,.1-.2,.2-.3,.3-.3,.1-.1,3.3-1.7,4.2-4.8,.1-.2,.2-.3,.4-.3s.4,0,.5,.2c0,0,2.2,2.7,6.5,2.9-.1-.5-.1-1.2,.2-2.1,.1-.3,.3-.4,.6-.3,.2,0,3.8,.9,4.8,4.6l.1,.1c.2,.3,.5,.9,.5,2,0,2.2-1.1,3.1-1.9,3.4-.4,2.1-1.3,3.8-2.6,5.1-1.5,1.3-3.2,2-4.9,2Zm-7.9-12s-.1,.1,0,0c-.1,.2-.4,.6-.4,1.5,0,2.3,1.4,2.5,1.4,2.5,.2,0,.4,.2,.4,.4,.4,2,1.2,3.7,2.4,4.9,1.1,1.1,2.6,1.7,4,1.7,1.5,0,2.9-.6,4-1.7,1.2-1.2,2-2.9,2.4-4.9,0-.2,.2-.4,.4-.4,.1,0,1.4-.2,1.4-2.5,0-.9-.2-1.3-.3-1.4,0-.1-.1-.1-.1-.1-.1-.1-.1-.2-.2-.3-.6-2.5-2.7-3.5-3.6-3.9-.2,1,.1,1.6,.1,1.7,.1,.2,.1,.3,0,.5-.1,.1-.2,.2-.4,.2-3.8,0-6.3-1.8-7.3-2.7-1.1,2.8-3.7,4.3-4.2,4.5Z"></path><path class="cls-18" d="M6.9,271.9c-.3,0-.5-.2-.5-.5,0-2.1,1.7-6.2,6.3-8.4,.8-.4,1.7-.7,2.7-1.1,.7-.3,1.4-.5,2-.8,1-.4,1.7-.8,2.2-1.2,.8-.6,1.2-1.2,1.2-1.9v-2.3c0-.3,.2-.5,.5-.5s.5,.2,.5,.5v2.2c0,1-.5,1.9-1.6,2.7-.6,.5-1.4,.9-2.5,1.3-.7,.3-1.4,.6-2.1,.8-1,.4-1.8,.7-2.6,1.1-4.3,2.2-5.7,6-5.7,7.5,.1,.4-.2,.6-.4,.6Z"></path><path class="cls-18" d="M44.5,271.9c-.3,0-.5-.2-.5-.5,0-1.5-1.4-5.4-5.7-7.5-.7-.4-1.6-.7-2.6-1.1-.7-.3-1.4-.5-2.1-.8-1-.4-1.8-.9-2.5-1.3-1-.8-1.6-1.7-1.6-2.7v-2.3c0-.3,.2-.5,.5-.5s.5,.2,.5,.5v2.2c0,.7,.4,1.3,1.2,1.9,.5,.4,1.3,.8,2.2,1.2,.7,.3,1.4,.5,2.1,.8,1,.4,1.9,.7,2.7,1.1,4.6,2.3,6.3,6.4,6.3,8.4,0,.4-.3,.6-.5,.6Z"></path><path class="cls-18" d="M34,246.4h-.2c-.3-.1-.4-.4-.3-.6,.4-1.1,.4-2.5,.4-3.7,0-4.7-3.2-7.8-8.3-7.8-3.2,0-4.5,1.4-5.4,2.9-.1,.1-.1,.2-.2,.2-1.2,.5-2.6,2.9-2.6,5.2,0,1.6,.2,2.6,.4,3.2,.1,.3-.1,.5-.3,.6-.3,.1-.5-.1-.6-.3-.2-.7-.4-1.7-.4-3.5,0-2.5,1.4-5.2,3.1-6,1-1.6,2.6-3.2,6.2-3.2,5.6,0,9.3,3.4,9.3,8.8,0,1.3,0,2.7-.4,4-.3,.1-.5,.2-.7,.2Z"></path><path class="cls-18" d="M23.2,268.8c-.1,0-.2,0-.3-.1-.2-.2-.3-.5-.1-.7l2.5-3.8c.2-.3,.6-.3,.8,0l2.5,3.8c.2,.2,.1,.5-.1,.7s-.5,.1-.7-.1l-2.1-3.1-2.1,3.1c-.1,.1-.3,.2-.4,.2Z"></path><path class="cls-18" d="M25.7,265h-.2c-2.4-.8-4.5-2.4-6-4.4-.2-.2-.1-.5,.1-.7s.5-.1,.7,.1c1.3,1.9,3.2,3.3,5.3,4,2.1-.7,4-2.2,5.3-4,.2-.2,.5-.3,.7-.1,.2,.2,.3,.5,.1,.7-1.5,2.1-3.6,3.7-6,4.4,.1,0,0,0,0,0Z"></path><path class="cls-18" d="M28.2,268.8c-.2,0-.3-.1-.4-.2-.1-.2-.1-.5,.2-.7,2.5-1.5,4.4-3.8,5.4-6.5,.1-.3,.4-.4,.6-.3,.3,.1,.4,.4,.3,.6-1.1,2.9-3.1,5.4-5.8,7-.1,0-.2,.1-.3,.1Z"></path><path class="cls-18" d="M23.2,268.8c-.1,0-.2,0-.3-.1-2.7-1.6-4.7-4.1-5.8-7-.1-.3,0-.5,.3-.6s.5,0,.6,.3c1,2.7,2.9,5,5.4,6.5,.2,.1,.3,.4,.2,.7-.1,.1-.3,.2-.4,.2Z"></path></g></g></g><rect class="cls-23" x=".5" y="223.6" width="100.2" height="1"></rect><circle class="cls-18" cx="6.2" cy="218.9" r="2.3"></circle><g class="cls-21"><circle class="cls-23" cx="12.4" cy="218.9" r="2.3"></circle></g><g class="cls-24"><circle class="cls-23" cx="18.5" cy="218.9" r="2.3"></circle></g><g><g><path class="cls-18" d="M63.1,252.6c0-.6-.4-1-1-1h-9.7c-.6,0-1,.4-1,1s.4,1,1,1h9.7c.6,0,1-.4,1-1h0Z"></path><path class="cls-18" d="M90.1,251.6h-22.9c-.6,0-1,.4-1,1h0c0,.6,.4,1,1,1h22.9c.6,0,1-.4,1-1s-.5-1-1-1Z"></path></g><g><path class="cls-18" d="M60.8,267.3c0-.6-.4-1-1-1h-7.3c-.6,0-1,.4-1,1s.4,1,1,1h7.3c.6,0,1-.4,1-1h0Z"></path><path class="cls-18" d="M80.9,266.3h-16.1c-.6,0-1,.4-1,1h0c0,.6,.4,1,1,1h16.1c.6,0,1-.4,1-1s-.5-1-1-1Z"></path></g><g><path class="cls-18" d="M73,245.2c0-.6-.4-1-1-1h-19.5c-.6,0-1,.4-1,1s.4,1,1,1h19.5c.5,0,1-.4,1-1h0Z"></path><path class="cls-18" d="M77,246.2h4.2c.6,0,1-.4,1-1h0c0-.6-.4-1-1-1h-4.2c-.6,0-1,.4-1,1h0c0,.6,.4,1,1,1Z"></path><path class="cls-18" d="M90.1,244.2h-3.9c-.6,0-1,.4-1,1h0c0,.6,.4,1,1,1h3.9c.6,0,1-.4,1-1s-.5-1-1-1Z"></path></g><g><path class="cls-18" d="M61.2,237.9c0-.6-.4-1-1-1h-7.8c-.6,0-1,.4-1,1s.4,1,1,1h7.8c.6,0,1-.5,1-1h0Z"></path><path class="cls-18" d="M90.1,236.9h-24.9c-.6,0-1,.4-1,1h0c0,.6,.4,1,1,1h24.9c.6,0,1-.4,1-1s-.5-1-1-1Z"></path></g><g><path class="cls-18" d="M61.5,261h15.8c.6,0,1-.4,1-1h0c0-.6-.4-1-1-1h-15.8c-.6,0-1,.4-1,1h0c0,.5,.5,1,1,1Z"></path><path class="cls-18" d="M90.1,259h-7.8c-.6,0-1,.4-1,1h0c0,.6,.4,1,1,1h7.8c.6,0,1-.4,1-1s-.5-1-1-1Z"></path><path class="cls-18" d="M57.5,260c0-.6-.4-1-1-1h-4c-.6,0-1,.4-1,1s.4,1,1,1h4c.6,0,1-.5,1-1h0Z"></path></g></g><rect class="cls-23" x=".5" y="280.6" width="100.2" height="1"></rect><g><path class="cls-29" d="M501.5,156.4l2.8-1.6c2.1-1.2,4.7-.4,5.9,1.7v.1c1.2,2.1,.4,4.7-1.7,5.9l-7,4.1h-.1"></path><path class="cls-39" d="M501.9,167l-.3-.5-.3-.5,7-4.1c.9-.5,1.5-1.3,1.8-2.3s.2-2-.3-2.9v-.1c-1-1.8-3.3-2.5-5.1-1.5l-2.8,1.6c-.3,.2-.6,.1-.8-.2s-.1-.6,.2-.8l2.8-1.6c2.4-1.3,5.4-.4,6.7,1.9v.1c.6,1.1,.8,2.5,.4,3.7-.4,1.3-1.2,2.3-2.3,2.9l-7,4.3Z"></path><path class="cls-39" d="M471.6,213.4h-.5c-.3,0-.6-.3-.5-.6,0-.3,.3-.6,.6-.5,.7,0,1.5,0,2.4-.2,4.8-.8,10.9-4.4,14.7-7.2,.3-.2,.6-.1,.8,.1,.2,.3,.1,.6-.1,.8-3.9,2.9-10.1,6.5-15.1,7.4-1,.2-1.7,.2-2.3,.2Z"></path><path class="cls-23" d="M466.4,161.7h-.1c-.3-.1-.5-.4-.4-.7,.1-.2,.1-.5,.1-.7,0-.3,.3-.6,.6-.6s.6,.3,.6,.6,0,.6-.1,1c-.2,.2-.4,.4-.7,.4Z"></path><path class="cls-39" d="M462.2,198.8c-.3,0-.6-.3-.6-.6s.2-.6,.6-.6c.5,0,1,0,1.4-.1,.9-.1,1.8-.4,2.7-.7,.3-.1,.6,0,.7,.3,.1,.3,0,.6-.3,.7-1,.4-1.9,.6-2.9,.8-.5,.1-1.1,.2-1.6,.2h0Z"></path><path class="cls-39" d="M456.4,236.4c-.1,0-.2,0-.3-.1-.3-.2-.3-.5-.1-.8l17.1-23.1c.2-.3,.5-.3,.8-.1s.3,.5,.1,.8l-17.1,23.1c-.1,.1-.3,.2-.5,.2Z"></path><path class="cls-39" d="M451.6,201.9c-.2,0-.4-.1-.5-.3-1.1-1.8-1.6-3.1-1.6-3.2v-.1c-.1-.3-.1-.6-.2-1-.2-1.3-.4-2.6-.4-3.9,0-1.8,1.5-9.5,1.6-9.8l7.8-24.7h0c.6-2.4,3-3.8,5.4-3.2,1.9,.5,3.3,2.2,3.4,4.2l-.1,1.1-2.3,18.7c0,.2,0,.5,.2,.6,.1,.1,.3,.3,.9,.1l.6-.3c.3-.1,.6,0,.8,.3,.1,.3,0,.6-.3,.8l-.6,.3c-1.2,.5-1.9,0-2.2-.3-.4-.4-.5-1-.5-1.6l2.4-19.7c0-1.4-1.1-2.7-2.5-3-1.8-.4-3.6,.6-4,2.4h0l-7.8,24.6c-.5,2.7-1.6,8.2-1.6,9.5,0,1.2,.1,2.5,.4,3.7,.1,.3,.1,.6,.2,.9,.1,.2,.5,1.3,1.5,2.9,.2,.3,.1,.6-.2,.8-.2,.1-.3,.2-.4,.2Z"></path><path class="cls-23" d="M501.5,178.4c-.3,0-.6-.3-.6-.6v-1c0-.3,.3-.6,.6-.6s.6,.3,.6,.6v1c0,.3-.2,.6-.6,.6Z"></path><path class="cls-23" d="M501.5,188.9c-.3,0-.6-.3-.6-.6v-1.7c0-.3,.3-.6,.6-.6s.6,.3,.6,.6v1.7c0,.3-.2,.6-.6,.6Z"></path><path class="cls-26" d="M497.2,206.4h-26.2c-2.4,0-4.4-2-4.4-4.4v-55.8c0-2.4,2-4.4,4.4-4.4h26.2c2.4,0,4.4,2,4.4,4.4v55.8c-.1,2.4-2,4.4-4.4,4.4"></path><path class="cls-23" d="M497.2,206.9h-26.2c-2.7,0-5-2.2-5-5v-55.8c0-2.7,2.2-5,5-5h26.2c2.7,0,5,2.2,5,5v55.8c-.1,2.8-2.3,5-5,5Zm-26.3-64.5c-2.1,0-3.8,1.7-3.8,3.8v55.8c0,2.1,1.7,3.8,3.8,3.8h26.2c2.1,0,3.8-1.7,3.8-3.8v-55.8c0-2.1-1.7-3.8-3.8-3.8h-26.2Z"></path><rect class="cls-29" x="466.5" y="147.9" width="35" height="51.6"></rect><path class="cls-23" d="M501.6,200.1h-35c-.3,0-.6-.3-.6-.6v-51.6c0-.3,.3-.6,.6-.6h35c.3,0,.6,.3,.6,.6v51.6c-.1,.4-.3,.6-.6,.6Zm-34.5-1.1h33.9v-50.5h-33.9v50.5Z"></path><path class="cls-29" d="M501.5,188.3l.5-.2c1.7-.6,3.6,.3,4.2,2l.4,1.1c.6,1.7-.3,3.6-2,4.2l-.6,.2c-.8,.3-1.7,.3-2.5,0-1.1-.4-2-1.2-2.4-2.4v-.1c-.7-1.8,.3-4,2.4-4.8h0Z"></path><path class="cls-39" d="M502.8,196.5c-.5,0-.9-.1-1.4-.2-1.3-.4-2.3-1.4-2.8-2.8-.8-2.4,.4-4.9,2.7-5.8h.1l.5-.2c2-.7,4.3,.4,5,2.4l.4,1.1c.7,2-.4,4.3-2.4,5l-.6,.2c-.5,.3-1,.3-1.5,.3Zm-1.1-7.7h0c-1.8,.6-2.7,2.5-2.1,4.3,.4,1.1,1.1,1.8,2.1,2.1,.7,.2,1.4,.2,2.1,0l.6-.2c1.4-.5,2.2-2.1,1.7-3.5l-.4-1.1c-.5-1.4-2.1-2.2-3.5-1.7l-.5,.1Z"></path><path class="cls-29" d="M501.5,177.8l.3-.1c1.7-.6,3.6,.3,4.2,2l.7,2c.6,1.7-.3,3.6-2,4.2l-1.4,.5c-.6,.2-1.2,.3-1.8,.2-1.4-.2-2.7-1.1-3.2-2.6l-.3-.9c-.7-2,.4-4.2,2.4-5l1.1-.3Z"></path><path class="cls-39" d="M502.1,187.2h-.6c-1.7-.2-3.1-1.3-3.6-2.9l-.3-.9c-.8-2.3,.4-4.9,2.7-5.7l1.1-.4h0l.3-.1c2-.7,4.3,.4,5,2.4l.7,2c.3,1,.3,2-.2,3-.5,.9-1.2,1.6-2.2,2l-1.4,.5c-.5,0-1,.1-1.5,.1Zm-.4-8.9l-1.1,.4c-1.7,.6-2.6,2.5-2,4.2l.3,.9c.4,1.2,1.4,2,2.7,2.2,.5,.1,1,0,1.5-.2l1.4-.5c.7-.2,1.2-.7,1.6-1.4,.3-.7,.4-1.4,.1-2.1l-.7-2c-.5-1.4-2.1-2.2-3.5-1.7l-.3,.2Z"></path><path class="cls-29" d="M501.5,167.9l.2-.1c1.7-.6,3.6,.3,4.2,2l.7,2c.6,1.7-.3,3.6-2,4.2l-1.4,.5c-.6,.2-1.1,.3-1.7,.2-1.4-.1-2.7-1.1-3.3-2.6l-.3-.9c-.7-2,.4-4.2,2.4-5l1.2-.3Z"></path><path class="cls-39" d="M502,177.4h-.5c-1.7-.2-3.2-1.3-3.7-3l-.3-.9c-.4-1.1-.3-2.3,.2-3.4,.5-1.1,1.4-1.9,2.5-2.3l1.4-.5c2-.7,4.3,.4,5,2.4l.7,2c.3,1,.3,2-.2,3-.5,.9-1.2,1.6-2.2,2l-1.4,.5c-.5,.1-1,.2-1.5,.2Zm.9-9.2c-.3,0-.6,0-.9,.2l-.2,.1h0l-1.2,.4c-.8,.3-1.5,.9-1.9,1.7s-.4,1.7-.1,2.5l.3,.9c.4,1.2,1.5,2.1,2.8,2.2,.5,.1,1,0,1.4-.2l1.4-.5c.7-.2,1.2-.7,1.6-1.4,.3-.7,.4-1.4,.1-2.1l-.7-2c-.4-1-1.5-1.8-2.6-1.8Z"></path><path class="cls-39" d="M430,218.9c-.1,0-.3-.1-.4-.2-.2-.2-.2-.6,0-.8l20-20c.2-.2,.6-.2,.8,0,.2,.2,.2,.6,0,.8l-20,20c-.1,.1-.3,.2-.4,.2Z"></path><path class="cls-33" d="M495.6,168v-3.6c0-2.1-1.7-3.8-3.8-3.8h-16.7c-2.1,0-3.8,1.7-3.8,3.8v11.7c0,2.1,1.7,3.8,3.8,3.8h2.5c.5,0,1,.2,1.3,.6l3.1,3.1c.7,.7,1.9,.7,2.7,0l3.1-3.1c.4-.4,.8-.6,1.3-.6h2.7c2.1,0,3.8-1.7,3.8-3.8"></path><path class="cls-39" d="M483.4,184.6c-.6,0-1.3-.2-1.7-.7l-3.1-3.1c-.2-.2-.6-.4-.9-.4h-2.5c-2.4,0-4.4-2-4.4-4.4v-11.7c0-2.4,2-4.4,4.4-4.4h16.7c2.4,0,4.4,2,4.4,4.4v3.6c0,.3-.3,.6-.6,.6s-.6-.3-.6-.6v-3.6c0-1.8-1.4-3.2-3.2-3.2h-16.7c-1.8,0-3.2,1.4-3.2,3.2v11.7c0,1.8,1.4,3.2,3.2,3.2h2.5c.7,0,1.3,.3,1.7,.7l3.1,3.1c.5,.5,1.4,.5,1.9,0l3.1-3.1c.5-.5,1.1-.7,1.7-.7h2.7c1.8,0,3.2-1.4,3.2-3.2,0-.3,.3-.6,.6-.6s.6,.3,.6,.6c0,2.4-2,4.4-4.4,4.4h-2.7c-.3,0-.7,.1-.9,.4l-3.1,3.1c-.6,.5-1.2,.7-1.8,.7Z"></path><path class="cls-29" d="M489.3,171.1c.8-1.5,.4-3.4-1-4.4-.6-.4-1.3-.7-2-.7-1.2,0-2.3,.6-3,1.6-.6-1-1.7-1.6-3-1.6-.4,0-.8,.1-1.2,.2-2,.8-2.8,3.3-1.6,5.1v.1c.5,.7,1,1.2,1.7,1.7l4.1,3.2,4.1-3.2c.8-.5,1.4-1.2,1.9-2h0"></path><path class="cls-39" d="M483.4,176.9c-.1,0-.2,0-.3-.1l-4.1-3.2c-.7-.6-1.3-1.2-1.8-1.9-.7-1.1-.9-2.4-.5-3.6,.4-1.1,1.2-2,2.3-2.4,1.5-.6,3.3-.1,4.4,1,.8-.8,1.8-1.3,3-1.3,.9,0,1.7,.3,2.4,.8,1.6,1.2,2.1,3.4,1.1,5.2h0c-.5,.8-1.1,1.6-2,2.2l-4.1,3.2c-.2,0-.3,.1-.4,.1Zm-3-10.3c-.4,0-.7,.1-1,.2-.8,.3-1.4,.9-1.6,1.7-.3,.9-.2,1.8,.3,2.5,.4,.6,1,1.2,1.6,1.7l3.8,2.9,3.7-2.9c.7-.5,1.3-1.2,1.7-1.9l.5,.3-.5-.3c.7-1.2,.4-2.8-.8-3.7-.5-.4-1.1-.5-1.7-.5-1,0-1.9,.5-2.5,1.3-.2,.3-.7,.3-1,0-.6-.8-1.5-1.3-2.5-1.3Z"></path></g><path class="cls-18" d="M22.7,303.5c0,2,1.6,3.6,3.6,3.6s3.6-1.6,3.6-3.6-1.6-3.6-3.6-3.6c-.9,0-1.8,.4-2.5,1l-.5,.5-5.7-2.8,.1-.7v-.9l-.1-.7,5.7-2.8,.5,.5c.6,.6,1.5,1,2.5,1,2,0,3.6-1.6,3.6-3.5,0-2-1.6-3.5-3.6-3.5s-3.6,1.6-3.6,3.6v.5l.1,.7-5.7,2.8-.5-.5c-.7-.6-1.5-1-2.5-1-2,0-3.6,1.6-3.6,3.6s1.6,3.6,3.6,3.6c.9,0,1.8-.4,2.5-1l.5-.5,5.7,2.8-.1,.7c0-.1,0,.1,0,.2Zm3.5-2.4c1.4,0,2.5,1.1,2.5,2.5s-1.1,2.5-2.5,2.5-2.5-1.1-2.5-2.5,1.1-2.5,2.5-2.5Zm0-12.2c1.4,0,2.5,1.1,2.5,2.5s-1.1,2.5-2.5,2.5-2.5-1.1-2.5-2.5,1.2-2.5,2.5-2.5Zm-12.1,11c-1.4,0-2.5-1.1-2.5-2.5,0-1.3,1.2-2.5,2.5-2.5,1.4,0,2.5,1.1,2.5,2.5,0,1.5-1.1,2.5-2.5,2.5Z"></path><path class="cls-18" d="M63.2,291.4c0-1.4-1.1-2.5-2.5-2.5h-18.1c-1.4,0-2.5,1.1-2.5,2.5v12.1c0,1.4,1.1,2.5,2.5,2.5h18.1c1.4,0,2.5-1.1,2.5-2.5v-12.1Zm-1.2,12.1c0,.7-.6,1.3-1.3,1.3h-18.1c-.7,0-1.3-.6-1.3-1.3v-9.2l7.5,6.2c1.7,1.3,4,1.3,5.6,0l7.5-6.2v9.2h.1Zm0-10.8l-8.4,6.9c-.6,.5-1.3,.7-2,.7s-1.4-.2-2-.7l-8.3-6.8v-1.3c0-.7,.6-1.3,1.3-1.3h18.1c.7,0,1.3,.6,1.3,1.3v1.2Z"></path><path class="cls-18" d="M83.1,305.2c5.8,0,10.4-3.8,10.4-8.4s-4.7-8.4-10.4-8.4-10.5,3.8-10.5,8.4c0,1.8,.7,3.6,2.1,5.1l.2,.2-.1,.3c-.6,1.7-2,3.3-2.2,3.4-.1,.1-.1,.3,0,.5s.3,.3,.5,.3c2,0,3.8-.6,5.7-1.9l.2-.1,.2,.1c1.3,.3,2.6,.5,3.9,.5Zm-4.2-1.8l-.6,.4c-.6,.4-1.5,.9-2.6,1.3l-1.3,.4,.7-1.1c.3-.5,.6-1.1,.8-1.6l.3-.9-.7-.7c-.8-.9-1.8-2.4-1.8-4.4,0-4.1,4.2-7.4,9.4-7.4s9.4,3.3,9.4,7.4-4.2,7.4-9.4,7.4c-1.2,0-2.4-.2-3.5-.5l-.7-.3Z"></path><g><circle class="cls-32" cx="100.7" cy="263.5" r="2.6"></circle><path class="cls-29" d="M100.7,260.9c1.4,0,2.6,1.2,2.6,2.6s-1.2,2.6-2.6,2.6-2.6-1.2-2.6-2.6c0-1.5,1.2-2.6,2.6-2.6m0-1c-2,0-3.6,1.6-3.6,3.6s1.6,3.6,3.6,3.6,3.6-1.6,3.6-3.6-1.6-3.6-3.6-3.6h0Z"></path></g></g><g id="comments"><g><path class="cls-18" d="M346.2,133.9l-6.2-6.2c-.8-.8-1.8-1.2-2.9-1.2h-14.3c-1.7,0-3.1-1.4-3.1-3.1v-12.4c0-1.7,1.4-3.1,3.1-3.1h27.6c1.7,0,3.1,1.4,3.1,3.1v12.4c0,1.7-1.4,3.1-3.1,3.1-2.3,0-4.2,1.9-4.2,4.2v3.2Zm-23.5-25.1c-1.2,0-2.1,1-2.1,2.1v12.4c0,1.2,1,2.1,2.1,2.1h14.3c1.4,0,2.7,.5,3.6,1.5l4.5,4.5v-.8c0-2.8,2.3-5.2,5.2-5.2,1.2,0,2.1-1,2.1-2.1v-12.4c0-1.2-1-2.1-2.1-2.1h-27.6Z"></path><path class="cls-18" d="M352.5,119.4v-8.7c0-1.1-.9-1.9-1.9-1.9h-4.4c-2.4,0-4.3-1.9-4.3-4.3v-18.2c0-2.4,1.9-4.3,4.3-4.3h40.6c2.4,0,4.3,1.9,4.3,4.3v18.2c0,2.4-1.9,4.3-4.3,4.3-.3,0-.5-.2-.5-.5s.2-.5,.5-.5c1.8,0,3.3-1.5,3.3-3.3v-18.2c0-1.8-1.5-3.3-3.3-3.3h-40.6c-1.8,0-3.3,1.5-3.3,3.3v18.2c0,1.8,1.5,3.3,3.3,3.3h4.4c1.6,0,2.9,1.3,2.9,2.9v6.3l7-7c1.4-1.4,3.2-2.1,5.2-2.1h17c.3,0,.5,.2,.5,.5s-.2,.5-.5,.5h-17c-1.7,0-3.3,.7-4.5,1.9l-8.7,8.6Z"></path><path class="cls-39" d="M306.6,55.4v-7.5c0-2.1-1.7-3.8-3.8-3.8h-3c-2.6,0-4.6-2.1-4.6-4.6V19.9c0-2.6,2.1-4.6,4.6-4.6h43.6c2.6,0,4.6,2.1,4.6,4.6v19.6c0,2.6-2.1,4.6-4.6,4.6h-22.6c-1.8,0-3.5,.7-4.8,2l-9.4,9.3Zm-6.9-39.2c-2,0-3.6,1.6-3.6,3.6v19.6c0,2,1.6,3.6,3.6,3.6h3c2.7,0,4.8,2.2,4.8,4.8v5.1l7.6-7.6c1.5-1.5,3.5-2.3,5.5-2.3h22.6c2,0,3.6-1.6,3.6-3.6V19.9c0-2-1.6-3.6-3.6-3.6h-43.5v-.1Z"></path><path class="cls-39" d="M265.9,83.6v-4.5c0-3.8-3.1-6.9-6.9-6.9-2.6,0-4.7-2.1-4.7-4.7v-19.7c0-2.6,2.1-4.7,4.7-4.7h43.9c2.6,0,4.7,2.1,4.7,4.7v19.7c0,1.9-1.1,3.6-2.8,4.3-.3,.1-.5,0-.7-.3-.1-.3,0-.5,.3-.7,1.4-.6,2.2-1.9,2.2-3.4v-19.6c0-2-1.6-3.7-3.7-3.7h-43.9c-2,0-3.7,1.6-3.7,3.7v19.7c0,2,1.6,3.7,3.7,3.7,4.4,0,7.9,3.5,7.9,7.9v2.1l7.7-7.7c1.5-1.5,3.5-2.3,5.6-2.3h20.2c.3,0,.5,.2,.5,.5s-.2,.5-.5,.5h-20.2c-1.8,0-3.6,.7-4.9,2l-9.4,9.4Z"></path><path class="cls-40" d="M403,94.8h-9.6c-.3,0-.5-.2-.5-.5s.2-.5,.5-.5h9.6c.3,0,.5,.2,.5,.5s-.2,.5-.5,.5Z"></path><path class="cls-40" d="M439.5,146.8l-12.1-12.1c-1.8-1.8-4.1-2.7-6.6-2.7h-30.1c-3.3,0-6-2.7-6-6v-26.1c0-2.4,1.4-4.5,3.6-5.5,.3-.1,.5,0,.7,.3,.1,.3,0,.5-.3,.7-1.8,.8-3,2.6-3,4.6v26.1c0,2.8,2.2,5,5,5h30.1c2.7,0,5.3,1.1,7.3,3l10.4,10.4v-3.1c0-5.7,4.6-10.3,10.3-10.3,2.8,0,5-2.2,5-5v-26.1c0-2.8-2.2-5-5-5h-13.8c-.3,0-.5-.2-.5-.5s.2-.5,.5-.5h13.8c3.3,0,6,2.7,6,6v26.1c0,3.3-2.7,6-6,6-5.1,0-9.3,4.2-9.3,9.3v5.4Z"></path><path class="cls-18" d="M342.8,94.2l-9.3-9.3c-1.3-1.3-3-2-4.8-2h-22.5c-2.5,0-4.6-2.1-4.6-4.6v-19.4c0-2,1.3-3.7,3.1-4.4,.3-.1,.5,.1,.6,.3,.1,.3-.1,.5-.3,.6-1.5,.5-2.5,1.9-2.5,3.4v19.5c0,2,1.6,3.6,3.6,3.6h22.5c2.1,0,4,.8,5.5,2.3l7.6,7.6v-5.4c0-2.4,2-4.4,4.4-4.4h3.4c2,0,3.6-1.6,3.6-3.6v-19.5c0-2-1.6-3.6-3.6-3.6h-39.5c-.3,0-.5-.2-.5-.5s.2-.5,.5-.5h39.6c2.5,0,4.6,2.1,4.6,4.6v19.5c0,2.5-2.1,4.6-4.6,4.6h-3.4c-1.9,0-3.4,1.5-3.4,3.4v7.8Z"></path></g><g><path class="cls-18" d="M381.7,89.8h-30.4c-.3,0-.5-.2-.5-.5s.2-.5,.5-.5h30.4c.3,0,.5,.2,.5,.5s-.2,.5-.5,.5Z"></path><path class="cls-18" d="M381.7,93.9h-30.4c-.3,0-.5-.2-.5-.5s.2-.5,.5-.5h30.4c.3,0,.5,.2,.5,.5s-.2,.5-.5,.5Z"></path><path class="cls-18" d="M381.7,97.9h-30.4c-.3,0-.5-.2-.5-.5s.2-.5,.5-.5h30.4c.3,0,.5,.2,.5,.5s-.2,.5-.5,.5Z"></path><path class="cls-18" d="M381.7,102h-30.4c-.3,0-.5-.2-.5-.5s.2-.5,.5-.5h30.4c.3,0,.5,.2,.5,.5s-.2,.5-.5,.5Z"></path></g><g><path class="cls-39" d="M298.6,52h-35.2c-.3,0-.5-.2-.5-.5s.2-.5,.5-.5h35.2c.3,0,.5,.2,.5,.5s-.3,.5-.5,.5Z"></path><path class="cls-39" d="M298.6,56.1h-35.2c-.3,0-.5-.2-.5-.5s.2-.5,.5-.5h35.2c.3,0,.5,.2,.5,.5s-.3,.5-.5,.5Z"></path><path class="cls-39" d="M298.6,60.2h-35.2c-.3,0-.5-.2-.5-.5s.2-.5,.5-.5h35.2c.3,0,.5,.2,.5,.5s-.3,.5-.5,.5Z"></path><path class="cls-39" d="M298.6,64.2h-35.2c-.3,0-.5-.2-.5-.5s.2-.5,.5-.5h35.2c.3,0,.5,.2,.5,.5s-.3,.5-.5,.5Z"></path></g><g><path class="cls-18" d="M347.1,113.6h-20.5c-.2,0-.4-.2-.4-.4s.2-.4,.4-.4h20.5c.2,0,.4,.2,.4,.4s-.2,.4-.4,.4Z"></path><path class="cls-18" d="M347.1,116.3h-20.5c-.2,0-.4-.2-.4-.4s.2-.4,.4-.4h20.5c.2,0,.4,.2,.4,.4s-.2,.4-.4,.4Z"></path><path class="cls-18" d="M347.1,119.1h-20.5c-.2,0-.4-.2-.4-.4s.2-.4,.4-.4h20.5c.2,0,.4,.2,.4,.4s-.2,.4-.4,.4Z"></path><path class="cls-18" d="M347.1,121.8h-20.5c-.2,0-.4-.2-.4-.4s.2-.4,.4-.4h20.5c.2,0,.4,.2,.4,.4s-.2,.4-.4,.4Z"></path></g><path class="cls-23" d="M318.5,77.1s6.8-1.5,6.8-7.3v-7s-4.5-.4-6.8-2.3c-2.3,1.8-6.8,2.3-6.8,2.3v7c0,5.8,6.8,7.3,6.8,7.3Z"></path><g><path class="cls-39" d="M317,23.9h-13.8c-.2,0-.3-.2-.3-.3s.2-.3,.3-.3h13.8c.2,0,.3,.2,.3,.3s-.2,.3-.3,.3Z"></path><path class="cls-39" d="M317,28h-13.8c-.2,0-.3-.2-.3-.3s.2-.3,.3-.3h13.8c.2,0,.3,.2,.3,.3s-.2,.3-.3,.3Z"></path><path class="cls-39" d="M317,32h-13.8c-.2,0-.3-.2-.3-.3s.2-.3,.3-.3h13.8c.2,0,.3,.2,.3,.3s-.2,.3-.3,.3Z"></path><path class="cls-39" d="M317,36.1h-13.8c-.2,0-.3-.2-.3-.3s.2-.3,.3-.3h13.8c.2,0,.3,.2,.3,.3s-.2,.3-.3,.3Z"></path></g><path class="cls-18" d="M345.2,64.4c.4,.4,.4,1,0,1.3l-7.5,7.5c-.4,.4-1,.4-1.3,0l-3.8-3.8c-.4-.4-.4-1,0-1.3,.4-.4,1-.4,1.3,0l3.1,3.1,6.9-6.8c.4-.4,1-.4,1.3,0h0Z"></path><path class="cls-20" d="M412.3,114.8c0,.5,.2,1,.4,1.5l1.4,2.1c.4,.7,1.4,1.2,2.2,1.2h5.1c.8,0,1.8-.5,2.2-1.2l1.4-2.1c.2-.4,.4-1,.4-1.5v-3.3h-13.3l.2,3.3Z"></path><path class="cls-40" d="M426,109.4h-14.1v-.5c-.8-2.8-3-6-4.2-7.4-2.4-2.8-3.7-6.3-3.7-9.9,0-8.3,6.8-15,15-15h0c4,0,7.8,1.6,10.7,4.4,2.8,2.8,4.4,6.6,4.4,10.6,0,3.7-1.3,7.3-3.7,9.9-1.2,1.3-3.4,4.6-4.2,7.4l-.2,.5Zm-13.3-1h12.5c.9-2.9,3.1-6.1,4.3-7.5,2.2-2.5,3.5-5.8,3.5-9.3,0-3.7-1.5-7.2-4.1-9.9-2.7-2.7-6.2-4.1-10-4.1h0c-7.7,0-14,6.3-14,14,0,3.4,1.2,6.7,3.5,9.3,1.2,1.4,3.4,4.6,4.3,7.5Z"></path><path class="cls-41" d="M411.6,91.7c0-4,3.3-7.3,7.4-7.3,.3,0,.6-.2,.6-.5s-.3-.6-.6-.6c-4.7,0-8.5,3.8-8.5,8.5,0,.3,.3,.6,.6,.6,.2-.1,.5-.4,.5-.7Z"></path><path class="cls-39" d="M336,26.3l4.3,.6c.4,.1,.7,.3,.8,.6,.1,.3,0,.7-.2,1l-3.1,3,.7,4.4c.1,.4-.1,.7-.4,.9s-.7,.2-1,.1l-3.8-2-3.8,2c-.3,.2-.7,.1-1-.1-.3-.2-.4-.6-.4-.9l.7-4.4-3.1-3c-.3-.3-.3-.6-.2-1,.1-.3,.4-.6,.8-.6l4.3-.6,1.9-3.9c.2-.3,.5-.5,.9-.5s.7,.2,.9,.5l1.7,3.9Z"></path></g><g id="graph"><path class="cls-12" d="M510.8,231.4c-3.7,10.3-9.5,20.4-19.8,30.1v104.1h19.8V231.4Z"></path><rect class="cls-12" x="428" y="348" width="19.8" height="17.6"></rect><rect class="cls-12" x="396.5" y="356.7" width="19.8" height="8.9"></rect><rect class="cls-12" x="365" y="359.7" width="19.8" height="5.9"></rect><path class="cls-18" d="M385.3,366.1h-20.8v-32.9c0-1.8,1.5-3.3,3.3-3.3h14.2c1.8,0,3.3,1.5,3.3,3.3v32.9Zm-19.8-1h18.8v-31.9c0-1.3-1-2.3-2.3-2.3h-14.2c-1.3,0-2.3,1-2.3,2.3v31.9Z"></path><path class="cls-18" d="M416.8,366.1h-20.8v-49.3c0-1.8,1.5-3.3,3.3-3.3h14.2c1.8,0,3.3,1.5,3.3,3.3v49.3Zm-19.8-1h18.8v-48.3c0-1.3-1-2.3-2.3-2.3h-14.2c-1.3,0-2.3,1-2.3,2.3v48.3Z"></path><path class="cls-18" d="M448.3,366.1h-20.8v-63.8c0-1.8,1.5-3.3,3.3-3.3h14.2c1.8,0,3.3,1.5,3.3,3.3v63.8Zm-19.8-1h18.8v-62.8c0-1.3-1-2.3-2.3-2.3h-14.2c-1.3,0-2.3,1-2.3,2.3v62.8Z"></path><path class="cls-18" d="M479.8,366.1h-20.8v-91.7c0-.3,.2-.5,.5-.5s.5,.2,.5,.5v90.7h18.8v-97c0-.3,.2-.5,.5-.5s.5,.2,.5,.5v98Z"></path><path class="cls-18" d="M511.3,366.1h-20.8v-104.5c0-.3,.2-.5,.5-.5s.5,.2,.5,.5v103.5h18.8V231.4c0-.3,.2-.5,.5-.5s.5,.2,.5,.5v134.7Z"></path><rect class="cls-12" x="459.5" y="323.4" width="19.8" height="42.2"></rect></g><g id="icons"><g><path class="cls-3" d="M287.1,285.4h-4.1c-.7,0-1.3,.6-1.3,1.3v8.3c0,.7,.6,1.3,1.3,1.3h4.1c.7,0,1.3-.6,1.3-1.3v-8.3c0-.7-.5-1.3-1.3-1.3Z"></path><path class="cls-23" d="M301,286.3h-3.9c-.8,0-1.4-.7-1.3-1.4l.2-2.7v-.4l-.7-3.3c-.1-.6-.7-1-1.3-1h0c-.7,0-1.3,.6-1.3,1.3v2.8c0,.3-.1,.6-.3,.8l-3.1,4.3c-.2,.2-.3,.5-.3,.8v6.9c0,.5,.3,.9,.7,1.2l2.4,1.4c.2,.1,.4,.2,.7,.2h5.7c.5,0,1-.3,1.2-.8l2.6-6.7c.1-.2,.1-.3,.1-.5v-1.6c-.1-.7-.7-1.3-1.4-1.3Z"></path></g><g><path class="cls-2" d="M341.3,362.4l-12.3-7.4c-1.9-1.2-4.4,.2-4.4,2.5v14.9c0,2.2,2.4,3.6,4.4,2.5l12.3-7.4c1.8-1.3,1.8-4,0-5.1Z"></path><path class="cls-40" d="M329.6,378c-.5,0-.9-.1-1.3-.4-.9-.5-1.4-1.4-1.4-2.4v-20.9c0-1,.5-1.9,1.4-2.4s1.9-.5,2.8,0l17.3,10.4c.8,.5,1.3,1.4,1.3,2.3,0,1-.5,1.8-1.3,2.3l-17.4,10.7c-.5,.3-.9,.4-1.4,.4Zm0-25.3c-.3,0-.6,.1-.9,.2-.6,.3-.9,.9-.9,1.5v20.9c0,.6,.3,1.2,.9,1.5s1.2,.3,1.8,0l17.3-10.4c.5-.3,.8-.9,.8-1.5s-.3-1.2-.8-1.5l-17.3-10.4c-.3-.2-.6-.3-.9-.3Z"></path></g><g><g><path class="cls-22" d="M241.2,365.6c0-.4-.3-.7-.7-.7h-6.8c-.4,0-.7,.3-.7,.7s.3,.7,.7,.7h6.8c.4,0,.7-.4,.7-.7h0Z"></path><path class="cls-22" d="M260.1,364.9h-16.1c-.4,0-.7,.3-.7,.7h0c0,.4,.3,.7,.7,.7h16.1c.4,0,.7-.3,.7-.7s-.3-.7-.7-.7Z"></path></g><g><path class="cls-22" d="M239.6,375.9c0-.4-.3-.7-.7-.7h-5.2c-.4,0-.7,.3-.7,.7s.3,.7,.7,.7h5.2c.4,0,.7-.3,.7-.7h0Z"></path><path class="cls-22" d="M253.7,375.2h-11.3c-.4,0-.7,.3-.7,.7h0c0,.4,.3,.7,.7,.7h11.3c.4,0,.7-.3,.7-.7,0-.4-.3-.7-.7-.7Z"></path></g><g><path class="cls-22" d="M248.1,360.4c0-.4-.3-.7-.7-.7h-13.7c-.4,0-.7,.3-.7,.7s.3,.7,.7,.7h13.7c.4,0,.7-.3,.7-.7h0Z"></path><path class="cls-22" d="M250.9,361.1h3c.4,0,.7-.3,.7-.7h0c0-.4-.3-.7-.7-.7h-3c-.4,0-.7,.3-.7,.7h0c0,.4,.3,.7,.7,.7Z"></path><path class="cls-22" d="M260.1,359.7h-2.7c-.4,0-.7,.3-.7,.7h0c0,.4,.3,.7,.7,.7h2.7c.4,0,.7-.3,.7-.7s-.3-.7-.7-.7Z"></path></g><g><path class="cls-22" d="M239.9,355.2c0-.4-.3-.7-.7-.7h-5.4c-.4,0-.7,.3-.7,.7s.3,.7,.7,.7h5.4c.3,0,.7-.3,.7-.7h0Z"></path><path class="cls-22" d="M260.1,354.5h-17.5c-.4,0-.7,.3-.7,.7h0c0,.4,.3,.7,.7,.7h17.5c.4,0,.7-.3,.7-.7s-.3-.7-.7-.7Z"></path></g><g><path class="cls-22" d="M240.1,371.4h11.1c.4,0,.7-.3,.7-.7h0c0-.4-.3-.7-.7-.7h-11.1c-.4,0-.7,.3-.7,.7h0c0,.4,.3,.7,.7,.7Z"></path><path class="cls-22" d="M260.1,370h-5.5c-.4,0-.7,.3-.7,.7h0c0,.4,.3,.7,.7,.7h5.5c.4,0,.7-.3,.7-.7s-.3-.7-.7-.7Z"></path><path class="cls-22" d="M237.3,370.7c0-.4-.3-.7-.7-.7h-2.8c-.4,0-.7,.3-.7,.7s.3,.7,.7,.7h2.8c.3,0,.7-.3,.7-.7h0Z"></path></g></g><g><g><path class="cls-41" d="M374,391c0-.4-.3-.7-.7-.7h-6.8c-.4,0-.7,.3-.7,.7s.3,.7,.7,.7h6.8c.4,0,.7-.3,.7-.7h0Z"></path><path class="cls-41" d="M392.9,390.3h-16.1c-.4,0-.7,.3-.7,.7h0c0,.4,.3,.7,.7,.7h16.1c.4,0,.7-.3,.7-.7,0-.3-.3-.7-.7-.7Z"></path></g><g><path class="cls-41" d="M372.3,401.4c0-.4-.3-.7-.7-.7h-5.2c-.4,0-.7,.3-.7,.7s.3,.7,.7,.7h5.2c.4,0,.7-.3,.7-.7h0Z"></path><path class="cls-41" d="M386.4,400.7h-11.3c-.4,0-.7,.3-.7,.7h0c0,.4,.3,.7,.7,.7h11.3c.4,0,.7-.3,.7-.7,.1-.4-.3-.7-.7-.7Z"></path></g><g><path class="cls-41" d="M380.9,385.9c0-.4-.3-.7-.7-.7h-13.7c-.4,0-.7,.3-.7,.7s.3,.7,.7,.7h13.7c.4,0,.7-.3,.7-.7h0Z"></path><path class="cls-41" d="M383.7,386.6h3c.4,0,.7-.3,.7-.7h0c0-.4-.3-.7-.7-.7h-3c-.4,0-.7,.3-.7,.7h0c0,.4,.3,.7,.7,.7Z"></path><path class="cls-41" d="M392.9,385.2h-2.7c-.4,0-.7,.3-.7,.7h0c0,.4,.3,.7,.7,.7h2.7c.4,0,.7-.3,.7-.7s-.3-.7-.7-.7Z"></path></g><g><path class="cls-41" d="M372.6,380.7c0-.4-.3-.7-.7-.7h-5.4c-.4,0-.7,.3-.7,.7s.3,.7,.7,.7h5.4c.4,0,.7-.3,.7-.7h0Z"></path><path class="cls-41" d="M392.9,380h-17.5c-.4,0-.7,.3-.7,.7h0c0,.4,.3,.7,.7,.7h17.5c.4,0,.7-.3,.7-.7s-.3-.7-.7-.7Z"></path></g><g><path class="cls-41" d="M372.8,396.9h11.1c.4,0,.7-.3,.7-.7h0c0-.4-.3-.7-.7-.7h-11.1c-.4,0-.7,.3-.7,.7h0c0,.4,.3,.7,.7,.7Z"></path><path class="cls-41" d="M392.9,395.5h-5.5c-.4,0-.7,.3-.7,.7h0c0,.4,.3,.7,.7,.7h5.5c.4,0,.7-.3,.7-.7s-.3-.7-.7-.7Z"></path><path class="cls-41" d="M370,396.2c0-.4-.3-.7-.7-.7h-2.8c-.4,0-.7,.3-.7,.7s.3,.7,.7,.7h2.8c.4,0,.7-.3,.7-.7h0Z"></path></g></g><path class="cls-40" d="M285.8,401.2c-.4,0-.8-.1-1.1-.4-.6-.4-.9-1.1-.7-1.8l.9-5.6-4-3.9c-.5-.5-.7-1.2-.5-1.9,.2-.7,.8-1.2,1.5-1.3l5.5-.8,2.5-5.1c.3-.6,1-1.1,1.7-1.1s1.4,.4,1.7,1.1l2.5,5.1,5.5,.8c.7,.1,1.3,.6,1.5,1.3,.2,.7,0,1.4-.5,1.9l-4,3.9,.9,5.6c.1,.7-.2,1.4-.8,1.8-.6,.4-1.3,.5-2,.1l-4.9-2.6-4.9,2.6c-.2,.3-.5,.3-.8,.3Zm5.8-4.1l5.4,2.9c.2,.1,.5,.1,.7-.1s.3-.4,.3-.7l-1-6.2,4.4-4.3c.2-.2,.3-.5,.2-.7-.1-.3-.3-.4-.6-.5l-6.1-.9-2.7-5.6c-.2-.5-1-.5-1.3,0l-2.7,5.6-6.1,.9c-.3,0-.5,.2-.6,.5s0,.5,.2,.7l4.4,4.3-1,6.2c0,.3,.1,.5,.3,.7,.2,.2,.5,.2,.8,.1l5.4-2.9Z"></path><path class="cls-39" d="M207.2,335.4l5.9,.9c.5,.1,.9,.4,1.1,.9s0,1-.3,1.4l-4.3,4.2,1,6.1c.1,.5-.1,1-.5,1.3s-1,.3-1.4,.1l-5.3-2.8-5.3,2.8c-.4,.2-1,.2-1.4-.1-.4-.3-.6-.8-.5-1.3l1-6.1-4.3-4.2c-.4-.4-.5-.9-.3-1.4s.6-.8,1.1-.9l5.9-.9,2.7-5.5c.2-.5,.7-.7,1.2-.7s1,.3,1.2,.7l2.5,5.5Z"></path><path class="cls-42" d="M159.3,351.8c-7.7,0-13.9,6.2-13.9,13.9,0,5.7,3.5,10.6,8.4,12.7-.2-1.3-.4-2.6-.4-3.6-3-1.9-5-5.3-5-9.1,0-6,4.9-10.9,10.9-10.9s10.9,4.9,10.9,10.9c0,3.8-2,7.2-5,9.1-.1,1-.2,2.3-.4,3.6,4.9-2.1,8.4-7,8.4-12.7,0-7.7-6.2-13.9-13.9-13.9Zm0,19.3c-2,0-4,.5-4,2.7s.8,6.5,1.3,8.2c.3,1.2,1.5,1.5,2.7,1.5s2.4-.3,2.7-1.4c.5-1.8,1.3-6.2,1.3-8.2,0-2.3-1.9-2.8-4-2.8Zm0-2c1.9,0,3.5-1.6,3.5-3.5s-1.6-3.5-3.5-3.5-3.5,1.5-3.5,3.5,1.6,3.5,3.5,3.5Zm8.9-3.5c0-4.9-4-8.9-8.9-8.9s-8.9,4-8.9,8.9c0,2.8,1.3,5.2,3.3,6.9,.3-.8,.9-1.6,2-2.2h0c-1.4-1.1-2.3-2.8-2.3-4.7,0-3.3,2.7-5.9,5.9-5.9s5.9,2.7,5.9,5.9c0,1.9-.9,3.6-2.3,4.7h0c1.1,.6,1.7,1.4,2,2.2,2-1.7,3.3-4.1,3.3-6.9Z"></path></g></g></svg>